<?xml version="1.0" encoding="utf-8"?><svg xmlns="http://www.w3.org/2000/svg" xmlns:xlink="http://www.w3.org/1999/xlink"><symbol fill="none" viewBox="0 0 64 23" id="american-express" xmlns="http://www.w3.org/2000/svg"><path d="M60.042 16.224h3.24L64 14.599h-3.906a2.326 2.326 0 0 0-2.589 2.349 2.11 2.11 0 0 0 .656 1.656 2.09 2.09 0 0 0 1.693.557h1.719a.67.67 0 0 1 .698.287.667.667 0 0 1 0 .755.681.681 0 0 1-.698.292h-3.854v1.599h3.828A2.36 2.36 0 0 0 64 20.547V18.76a2.165 2.165 0 0 0-2.188-1.255H60a.67.67 0 0 1-.698-.286.667.667 0 0 1 0-.756.681.681 0 0 1 .698-.291l.042.052Zm-5.203 1.333h-1.745a.67.67 0 0 1-.698-.286.667.667 0 0 1 0-.755.681.681 0 0 1 .698-.292h3.24l.718-1.599h-3.906a2.32 2.32 0 0 0-1.823.588 2.308 2.308 0 0 0-.766 1.76 2.11 2.11 0 0 0 .657 1.657 2.09 2.09 0 0 0 1.692.558h1.76a.67.67 0 0 1 .699.286.676.676 0 0 1 0 .76.687.687 0 0 1-.698.287H50.77v1.599h3.896a2.33 2.33 0 0 0 2.52-2.453 2.07 2.07 0 0 0-2.349-2.162v.052Zm-5.026-1.333v-1.599h-6.068v7.443h6.068v-1.6h-4.224v-1.333h4.12v-1.63h-4.12v-1.333l4.224.052Zm-9.735 1.656h-2.104v-1.734h2.104c.24-.031.48.041.656.203a.819.819 0 0 1 .282.625.815.815 0 0 1-.276.63.829.829 0 0 1-.662.198v.078Zm.724 1.495a2.39 2.39 0 0 0 2.089-2.656 2.39 2.39 0 0 0-2.651-2.094H36.16v7.443h1.813V19.4h.828l2.24 2.667h2.276l-2.516-2.693Zm-8.39-1.333h-2.157v-1.896h2.156a.92.92 0 1 1 0 1.838v.058Zm.16-3.443h-4.145v7.469h1.828v-2.48h2.266a2.484 2.484 0 0 0 2.666-2.536 2.424 2.424 0 0 0-.74-1.844 2.419 2.419 0 0 0-1.874-.661v.052Zm-7.504 3.734 3.01-3.734h-2.213L24 16.922l-1.854-2.375H19.88l3.052 3.786L20 22.068h2.188L24 19.667l1.813 2.427h2.291l-3.036-3.76Zm-5.453-2.187v-1.6h-6.042v7.522h6.042v-1.6h-4.23v-1.333h4.146v-1.63h-4.146v-1.333l4.23-.026ZM56.813.333V5.24l-.506-.855-2.666-4h-2.23v7.521h1.787v-5.12l.484.829 2.787 4.24h2.198V.332h-1.855ZM45.4 4.813l.693-1.76.479-1.173.453 1.172.719 1.76H45.4Zm2.453-4.48h-2.4l-3.23 7.521h1.948l.64-1.52h3.563l.64 1.572h2.053L47.854.333ZM41.48 1.958h1.959V.333h-2.105a3.39 3.39 0 0 0-2.65 1.026 3.393 3.393 0 0 0-.949 2.683v.104a3.332 3.332 0 0 0 3.49 3.708h.11l.734-1.599h-.6a1.865 1.865 0 0 1-1.948-2.11v-.103a1.875 1.875 0 0 1 .49-1.495 1.87 1.87 0 0 1 1.459-.589h.01Zm-6.666 5.896h1.828V.334h-1.828v7.52ZM31.16 3.59h-2.109V1.932h2.11a.837.837 0 0 1 .932.828.808.808 0 0 1-.276.63.799.799 0 0 1-.657.199Zm.72 1.49a2.325 2.325 0 0 0 2.051-2.37A2.34 2.34 0 0 0 33.141.91a2.346 2.346 0 0 0-1.875-.578h-4.068v7.521h1.854V5.187h.828l2.24 2.667h2.265L31.88 5.078ZM26 1.931V.333h-6v7.521h6V6.255h-4.23V4.922h4.12v-1.63h-4.12V1.958L26 1.932ZM15.599.333l-1.464 4.35-.244.822-.24-.823-1.49-4.349H9.215v7.521h1.77V1.771l.375 1.15 1.709 4.933h1.599l1.745-4.932.348-1.151v6.083h1.76V.334H15.6ZM3.172 4.813l.734-1.76.48-1.173.479 1.172.724 1.76H3.172ZM5.64.332H3.266L0 7.854h1.974l.693-1.52h3.505l.64 1.572h2.053L5.64.333Z" fill="#3B68BB"/></symbol><symbol fill="none" viewBox="0 0 47 29" id="mastercard" xmlns="http://www.w3.org/2000/svg"><path d="M16.531 3.214h13.615v22.24H16.53V3.213Z" fill="#F14F1E"/><path d="M18 14.333a14.11 14.11 0 0 1 5.333-11.12c-5.802-4.562-14.13-3.9-19.135 1.521-5.005 5.422-5.005 13.776 0 19.198 5.005 5.422 13.333 6.084 19.135 1.521A14.11 14.11 0 0 1 18 14.333Z" fill="#EA1E28"/><path d="M45.76 23.094v-.547h-.135l-.156.385-.177-.385h-.13v.547h.093v-.412l.156.36h.11l.146-.36v.412h.093Zm-.906 0v-.453h.198v-.094h-.463v.094h.182v.453h.083Zm1.36-8.76a14.145 14.145 0 0 1-7.964 12.713 14.144 14.144 0 0 1-14.917-1.594C29.47 20.625 30.526 11.74 25.708 5.6a13.91 13.91 0 0 0-2.375-2.385A14.144 14.144 0 0 1 38.25 1.62a14.145 14.145 0 0 1 7.964 12.713Z" fill="#F49413"/></symbol><symbol fill="none" viewBox="0 0 40 14" id="visa" xmlns="http://www.w3.org/2000/svg"><path d="m15.318 1.146-5.172 12.333h-3.48L4.12 3.625a1.338 1.338 0 0 0-.76-1.078c-1-.48-2.058-.828-3.146-1.042l.078-.36h5.427c.734 0 1.364.532 1.479 1.256l1.333 7.13 3.323-8.385h3.464Zm13.15 8.411C28.48 6.24 24 6 24 4.667c0-.443.427-.907 1.333-1.026a5.954 5.954 0 0 1 3.146.546l.563-2.666a8.628 8.628 0 0 0-2.99-.547c-3.146 0-5.333 1.677-5.333 4.078 0 1.776 1.588 2.76 2.786 3.349 1.203.583 1.667 1 1.656 1.531 0 .828-.99 1.203-1.906 1.214A6.692 6.692 0 0 1 20 10.349l-.573 2.667a9.599 9.599 0 0 0 3.547.65c3.344 0 5.547-1.65 5.557-4.213m8.255 4.104h2.959L37.16 1.224h-2.666a1.457 1.457 0 0 0-1.334.911l-4.786 11.422h3.36l.65-1.838h4.016l.385 1.838Zm-3.557-4.37 1.677-4.63.974 4.63h-2.65Zm-13.416-8-2.667 12.334h-3.198l2.666-12.334h3.198Z" fill="#fff"/></symbol></svg>