<svg width="54" height="27" fill="none" xmlns="http://www.w3.org/2000/svg"><path d="M38.582 14.343c3.813 0 6.904-3.087 6.904-6.894 0-3.808-3.091-6.894-6.904-6.894-3.813 0-6.905 3.086-6.905 6.894 0 3.807 3.092 6.894 6.905 6.894z" fill="#40BCF4"/><path d="M26.865 14.343c3.813 0 6.905-3.087 6.905-6.894 0-3.808-3.092-6.894-6.905-6.894s-6.904 3.086-6.904 6.894c0 3.807 3.091 6.894 6.904 6.894z" fill="#00E054"/><path d="M15.149 14.343c3.813 0 6.904-3.087 6.904-6.894 0-3.808-3.091-6.894-6.904-6.894-3.813 0-6.905 3.086-6.905 6.894 0 3.807 3.092 6.894 6.905 6.894z" fill="#FF8000"/><path fill-rule="evenodd" clip-rule="evenodd" d="M21.007 11.099a6.854 6.854 0 01-1.046-3.65c0-1.34.383-2.592 1.046-3.65a6.855 6.855 0 011.046 3.65c0 1.34-.383 2.591-1.046 3.65zm11.717-7.3a6.854 6.854 0 011.046 3.65c0 1.34-.384 2.591-1.047 3.65a6.855 6.855 0 01-1.046-3.65c0-1.34.384-2.592 1.047-3.65zM15.377 20.217c.215 0 .362-.02.558-.06.363-.05.5-.208.56-.693.029-.237.048-.445.058-.682h1.47v1.435h1.354v1.593h-1.353v1.376c0 .99.147 1.098.99 1.098h.363v1.673h-.902c-1.716 0-2.138-.624-2.138-2.415V21.81H13.97v1.376c0 .99.147 1.098.99 1.098h.363v1.673h-.902c-1.716 0-2.137-.624-2.137-2.415V21.81h-.96v-1.494c.215 0 .362-.02.558-.06.363-.05.5-.208.559-.693.03-.237.049-.544.059-.781h1.47v1.435h1.408zM0 18.86h1.843v5.324h2.95v1.772H0V18.86zm8.185 7.244c-1.97 0-2.892-1.108-2.892-2.88v-.168c0-1.84 1.147-2.96 2.922-2.96 2.01 0 2.862 1.317 2.862 2.871v.643h-4.01c.089.693.481 1.07 1.167 1.07.5 0 .775-.219.912-.545h1.892c-.313 1.207-1.196 1.97-2.853 1.97zm-1.117-3.622h2.245c-.079-.643-.412-1.02-1.079-1.02-.666 0-1.049.347-1.166 1.02zM22.7 26.105c-1.97 0-2.892-1.108-2.892-2.88v-.168c0-1.84 1.146-2.96 2.921-2.96 2.01 0 2.863 1.317 2.863 2.871v.643h-4.01c.088.693.48 1.07 1.166 1.07.5 0 .775-.219.912-.545h1.892c-.313 1.207-1.196 1.97-2.852 1.97zm-1.118-3.622h2.245c-.078-.643-.412-1.02-1.079-1.02-.666 0-1.048.347-1.166 1.02zm4.744 3.474v-5.74h1.432l.245 1.177c.186-.89.764-1.257 1.784-1.257h.324v1.89h-.667c-1.04 0-1.294.367-1.294 1.386v2.544h-1.823zm6.118-.96l-.138.96h-1.558v-7.62h1.764v2.8c.304-.653.873-1.04 1.667-1.04 1.274.01 2.215.891 2.215 2.831v.178c0 1.95-.853 3-2.255 3-.862 0-1.42-.436-1.695-1.11zm2.176-1.9v-.139c0-.91-.431-1.366-1.05-1.366-.646 0-1.087.505-1.087 1.346v.129c0 1 .431 1.465 1.078 1.465.657 0 1.059-.426 1.059-1.435zm2.323.128v-.178c0-1.95 1.196-2.95 2.872-2.95 1.706 0 2.863 1.03 2.863 2.95v.178c0 1.91-1.137 2.88-2.872 2.88-1.844 0-2.863-.97-2.863-2.88zm3.96-.02v-.158c0-.94-.392-1.425-1.078-1.425-.667 0-1.108.465-1.108 1.425v.158c0 .881.441 1.347 1.098 1.347s1.089-.446 1.089-1.347zm4.617 1.129l-1.039 1.623h-2.098l2.098-2.989-1.902-2.751h2.02l.931 1.454.931-1.454h2.01l-1.892 2.731 2.02 3.009h-2.04l-1.039-1.623zm6.794.623c-.285.673-.853 1.109-1.725 1.109-1.373 0-2.236-1-2.236-2.97v-.168c0-1.93.941-2.82 2.245-2.82.824 0 1.363.346 1.647.93v-2.702H54v7.62h-1.52l-.166-.999zm-.05-1.87v-.129c0-.87-.42-1.366-1.058-1.366-.667 0-1.059.465-1.059 1.366v.129c0 1.03.422 1.445 1.03 1.445.657 0 1.088-.475 1.088-1.445z" fill="#fff"/></svg>