<svg width="38" height="18" fill="none" xmlns="http://www.w3.org/2000/svg"><path d="M35.62 13.187H2.38A2.39 2.39 0 000 15.585v.017A2.39 2.39 0 002.38 18h33.24A2.39 2.39 0 0038 15.602v-.017a2.39 2.39 0 00-2.38-2.398z" fill="url(#paint0_linear_138_250)"/><path d="M1.167 9.715V4.248h-.93V2.836h.93v-.552c0-.449.074-.819.223-1.11.153-.29.392-.507.72-.648.33-.141.766-.212 1.305-.212.17 0 .342.009.516.026.174.013.314.03.42.051V1.63a1.531 1.531 0 00-.223-.026 5.058 5.058 0 00-.255-.006c-.305 0-.53.064-.675.192-.144.129-.216.317-.216.565v.481h1.356v1.412H3.026v5.467h-1.86zm4.19 0V2.836h1.86v6.879h-1.86zm.93-7.764a.957.957 0 01-.707-.29.941.941 0 01-.287-.686c0-.27.096-.498.287-.686A.957.957 0 016.287 0c.28 0 .516.096.707.289a.928.928 0 01.286.686.941.941 0 01-.286.687.957.957 0 01-.707.289zM8.51 9.715V.455h1.859v9.26h-1.86zm3.113 0V2.836h1.86v1.155h.038c.14-.393.378-.708.713-.943a2.05 2.05 0 011.197-.353c.319 0 .605.056.86.167.255.111.469.271.643.481.178.21.303.466.376.77h.038c.102-.29.255-.541.458-.75a2.14 2.14 0 01.733-.495c.284-.115.594-.173.93-.173.445 0 .836.096 1.171.289.335.192.597.462.783.808.187.347.28.753.28 1.22v4.703h-1.859V5.48c0-.266-.044-.49-.134-.674a.897.897 0 00-.375-.417 1.185 1.185 0 00-.605-.141c-.234 0-.44.053-.618.16a1.09 1.09 0 00-.407.45 1.471 1.471 0 00-.147.673v4.184h-1.79V5.422c0-.248-.044-.46-.133-.635a.908.908 0 00-.382-.398 1.144 1.144 0 00-.586-.141c-.233 0-.44.055-.618.167a1.16 1.16 0 00-.42.462 1.527 1.527 0 00-.146.686v4.152h-1.86zm14.067.141c-.628 0-1.163-.092-1.605-.276-.441-.184-.787-.439-1.038-.764a2.326 2.326 0 01-.445-1.142l-.007-.058h1.815l.013.058c.06.27.193.48.4.629.209.15.498.225.867.225.238 0 .44-.028.605-.084a.868.868 0 00.382-.25.565.565 0 00.14-.385v-.007a.55.55 0 00-.197-.442c-.132-.111-.365-.206-.7-.283l-1.16-.243a3.74 3.74 0 01-1.108-.405c-.293-.18-.514-.4-.662-.66a1.832 1.832 0 01-.223-.912v-.006c0-.44.117-.821.35-1.142.234-.321.565-.57.994-.745.433-.18.938-.27 1.515-.27.603 0 1.115.1 1.535.296.424.193.75.454.974.783.23.33.35.695.363 1.097v.064h-1.713l-.006-.051a.91.91 0 00-.344-.616c-.195-.167-.465-.25-.809-.25-.212 0-.397.03-.554.09a.802.802 0 00-.363.256.6.6 0 00-.127.385v.007c0 .115.027.22.083.314.06.09.157.169.293.237.136.069.318.129.547.18l1.16.25c.717.15 1.23.375 1.54.674.314.3.472.702.472 1.206v.007c0 .449-.128.84-.383 1.174-.254.334-.607.595-1.057.783-.445.184-.961.276-1.547.276zm4.871-.032a.992.992 0 01-.732-.302c-.2-.201-.3-.447-.3-.738 0-.29.1-.537.3-.738a.992.992 0 01.732-.301c.29 0 .533.1.733.301.2.201.3.447.3.738s-.1.537-.3.738a.992.992 0 01-.733.302zM3.146 13.187H2.38A2.39 2.39 0 000 15.585v.017A2.39 2.39 0 002.38 18h.766a2.39 2.39 0 002.38-2.398v-.017a2.39 2.39 0 00-2.38-2.398z" fill="#fff"/><defs><linearGradient id="paint0_linear_138_250" x1="0" y1="9.031" x2="38.016" y2="9.031" gradientUnits="userSpaceOnUse"><stop/><stop offset=".02" stop-color="#1F0404"/><stop offset=".05" stop-color="#5A0E0D"/><stop offset=".09" stop-color="#8C1614"/><stop offset=".12" stop-color="#B21C19"/><stop offset=".15" stop-color="#CE201D"/><stop offset=".17" stop-color="#DF2320"/><stop offset=".19" stop-color="#E52421"/><stop offset=".22" stop-color="#E52920"/><stop offset=".25" stop-color="#E8391D"/><stop offset=".28" stop-color="#EC5418"/><stop offset=".32" stop-color="#F17911"/><stop offset=".36" stop-color="#F8A809"/><stop offset=".39" stop-color="#FFD402"/><stop offset=".4" stop-color="#FFD715"/><stop offset=".43" stop-color="#FFE567"/><stop offset=".45" stop-color="#FFF0A8"/><stop offset=".47" stop-color="#FFF8D7"/><stop offset=".49" stop-color="#FFFDF4"/><stop offset=".5" stop-color="#fff"/><stop offset=".53" stop-color="#D6EFF7"/><stop offset=".57" stop-color="#B0E1EF"/><stop offset=".6" stop-color="#92D5E9"/><stop offset=".64" stop-color="#7DCDE5"/><stop offset=".67" stop-color="#70C8E2"/><stop offset=".71" stop-color="#66BBDA"/><stop offset=".75" stop-color="#5392BF"/><stop offset=".78" stop-color="#4370A8"/><stop offset=".81" stop-color="#365697"/><stop offset=".85" stop-color="#2D438A"/><stop offset=".88" stop-color="#283883"/><stop offset=".92" stop-color="#273581"/></linearGradient></defs></svg>