<svg width="10" height="9" viewBox="0 0 10 9" fill="none" xmlns="http://www.w3.org/2000/svg">
<path fill-rule="evenodd" clip-rule="evenodd" d="M9.1022 9C9.58585 8.99517 9.99886 8.52286 9.99886 7.91949H10V5.04946C10 4.44069 9.58375 3.96895 9.09728 3.96895H8.864C8.37753 3.96895 7.96129 4.44069 7.96129 5.04946V6.65613C7.96129 6.86347 7.81651 7.05457 7.61223 7.05457H2.38777C2.18349 7.05457 2.03871 6.86347 2.03871 6.65613V5.04946C2.03871 4.44069 1.62247 3.96895 1.136 3.96895H0.902715C0.416246 3.96895 0 4.44069 0 5.04946V7.91949C0 8.52826 0.416246 9 0.902715 9H9.1022ZM2.43329 0C1.8922 0 1.43044 0.525513 1.43044 1.19882V3.20387C2.1808 3.36819 2.73683 4.13984 2.73683 5.04812V6.25635H7.26203V5.04812C7.26203 4.14015 7.81878 3.36717 8.56843 3.20367V1.19882C8.56843 0.525513 8.10666 0 7.56557 0H2.43329Z" fill="white"/>
</svg>
