<svg width="10" height="10" viewBox="0 0 10 10" fill="none" xmlns="http://www.w3.org/2000/svg">
<path d="M0.244078 1.42259C-0.0813603 1.09715 -0.0813592 0.569515 0.24408 0.244076C0.569521 -0.0813596 1.09715 -0.0813585 1.42259 0.244078L4.99999 3.82148L8.57737 0.244078C8.90281 -0.0813585 9.43047 -0.0813596 9.75592 0.244076C10.0814 0.569515 10.0814 1.09715 9.75592 1.42259L6.17848 4.99999L9.75592 8.57737C10.0814 8.90281 10.0814 9.43047 9.75592 9.75592C9.43047 10.0814 8.90281 10.0814 8.57737 9.75592L4.99999 6.17848L1.42259 9.75592C1.09715 10.0814 0.569521 10.0814 0.24408 9.75592C-0.0813592 9.43047 -0.0813603 8.90281 0.244078 8.57737L3.82147 4.99999L0.244078 1.42259Z" fill="white"/>
</svg>
