<svg width="14" height="10" viewBox="0 0 14 10" fill="none" xmlns="http://www.w3.org/2000/svg">
<g clip-path="url(#clip0_463_52)">
<path d="M4.00443 6.98462H0V8.65385C0 9.39231 0.605321 10 1.35809 10H4.88914C5.34701 9.70769 5.64967 9.2 5.64967 8.62308C5.64967 7.72308 4.91242 6.98462 4.00443 6.98462ZM9.68514 6.98462C8.77716 6.98462 8.03991 7.72308 8.03991 8.62308C8.03991 9.2 8.34257 9.70769 8.80044 10H12.6419C13.3947 10 14 9.39231 14 8.65385V6.98462H9.68514ZM12.6419 0H1.35809C0.605321 0 0 0.6 0 1.34615V3.33077H4.19845C4.57095 3.33077 4.87361 3.03077 4.87361 2.66154C4.87361 2.29231 4.57095 1.98462 4.19845 1.98462C4.03548 1.98462 3.90355 1.86154 3.90355 1.7C3.90355 1.53846 4.03548 1.40769 4.19845 1.40769C4.88913 1.40769 5.45565 1.96923 5.45565 2.66154C5.45565 3.35385 4.88913 3.90769 4.19845 3.90769H3.1663V6.40769H4.00443C5.2306 6.40769 6.23171 7.4 6.23171 8.62308C6.23171 9.13846 6.05321 9.62308 5.75055 10H7.93902C7.63636 9.62308 7.45787 9.13846 7.45787 8.62308C7.45787 7.4 8.45898 6.40769 9.68514 6.40769H10.5233V3.90769H9.49113C8.80044 3.90769 8.23392 3.35385 8.23392 2.66154C8.23392 1.96923 8.80044 1.40769 9.49113 1.40769C9.6541 1.40769 9.78603 1.53846 9.78603 1.7C9.78603 1.86154 9.6541 1.98462 9.49113 1.98462C9.11862 1.98462 8.81596 2.29231 8.81596 2.66154C8.81596 3.03077 9.11862 3.33077 9.49113 3.33077H14V1.34615C14 0.6 13.3947 0 12.6419 0ZM0 3.90769V6.40769H2.58426V3.90769H0Z" fill="white"/>
<path d="M14 3.9077H11.1053V6.4077H14V3.9077Z" fill="white"/>
</g>
<defs>
<clipPath id="clip0_463_52">
<rect width="14" height="10" fill="white"/>
</clipPath>
</defs>
</svg>
