<svg width="10" height="10" viewBox="0 0 10 10" fill="none" xmlns="http://www.w3.org/2000/svg">
<path d="M9.33333 5.35708V8.92857C9.33256 9.21247 9.22695 9.48452 9.03958 9.68527C8.85221 9.88603 8.59831 9.99918 8.33333 10H5.33333V4.99993H9C9.08832 5.00022 9.17296 5.03794 9.23541 5.10485C9.29787 5.17177 9.33307 5.26245 9.33333 5.35708ZM0.666667 5.35708V8.92857C0.667443 9.21247 0.773049 9.48452 0.960418 9.68527C1.14779 9.88603 1.40169 9.99918 1.66667 10H4.66667V4.99993H1C0.911676 5.00022 0.827044 5.03794 0.764589 5.10485C0.702134 5.17177 0.66693 5.26245 0.666667 5.35708ZM10 2.85705V3.57134C9.99948 3.76061 9.92908 3.94197 9.80416 4.07581C9.67925 4.20965 9.50999 4.28508 9.33333 4.28564H0.666667C0.490015 4.28508 0.320748 4.20965 0.195836 4.07581C0.0709245 3.94197 0.000519704 3.76061 0 3.57134V2.85705C0.000516205 2.66777 0.0709198 2.48641 0.195832 2.35257C0.320745 2.21874 0.490014 2.1433 0.666667 2.14275H2.1C2.02901 2.02261 1.97614 1.89124 1.94333 1.75346C1.8997 1.57461 1.8902 1.38816 1.9154 1.20529C1.9406 1.02241 1.99999 0.846863 2.09 0.689156C2.27315 0.368592 2.56587 0.137314 2.90583 0.0445862C3.24578 -0.0481414 3.60608 0.00501047 3.91 0.19272C4.28333 0.421295 4.72333 1.20702 5 1.76774C5.27667 1.20702 5.71667 0.421295 6.09 0.19272C6.39392 0.00501047 6.75422 -0.0481414 7.09417 0.0445862C7.43413 0.137314 7.72685 0.368592 7.91 0.689156C8.00001 0.846863 8.0594 1.02241 8.0846 1.20529C8.1098 1.38816 8.1003 1.57461 8.05667 1.75346C8.02386 1.89124 7.97099 2.02261 7.9 2.14275H9.33333C9.50999 2.1433 9.67926 2.21874 9.80417 2.35257C9.92908 2.48641 9.99948 2.66777 10 2.85705ZM4.43 2.13918C4.22081 1.64592 3.93193 1.19614 3.57667 0.810586C3.47297 0.747611 3.35586 0.714395 3.23667 0.714156C3.12106 0.712879 3.00713 0.743809 2.90603 0.803914C2.80494 0.864019 2.72016 0.951237 2.66 1.05702C2.6167 1.13398 2.58821 1.21944 2.57619 1.30838C2.56416 1.39731 2.56886 1.48792 2.59 1.57488C2.61169 1.66376 2.64968 1.74711 2.70176 1.82008C2.75384 1.89305 2.81897 1.95418 2.89333 1.99989C3.29363 2.12365 3.71094 2.17199 4.12667 2.14275C4.22667 2.14275 4.32667 2.14275 4.43 2.13918ZM7.34 1.05702C7.2471 0.896302 7.09943 0.78068 6.9283 0.734674C6.75717 0.688667 6.57604 0.715897 6.42333 0.810586C6.06807 1.19614 5.77919 1.64592 5.57 2.13918C5.67333 2.14275 5.77333 2.14275 5.87333 2.14275C6.28906 2.17199 6.70637 2.12365 7.10667 1.99989C7.18103 1.95418 7.24616 1.89305 7.29824 1.82008C7.35032 1.74711 7.38831 1.66376 7.41 1.57488C7.43114 1.48792 7.43584 1.39731 7.42381 1.30838C7.41179 1.21944 7.3833 1.13398 7.34 1.05702Z" fill="white"/>
</svg>
