<svg width="10" height="10" viewBox="0 0 10 10" fill="none" xmlns="http://www.w3.org/2000/svg">
<path d="M10 5.11111C10 4.7 9.96597 4.4 9.8923 4.0889H5.10205V5.94443H7.91382C7.85715 6.40556 7.55103 7.1 6.87074 7.56665L6.86121 7.62877L8.3758 8.77863L8.48073 8.7889C9.44443 7.91666 10 6.63332 10 5.11111Z" fill="#4285F4"/>
<path d="M5.10202 10C6.47956 10 7.63601 9.55553 8.48071 8.78889L6.87072 7.56664C6.43989 7.86109 5.86164 8.06664 5.10202 8.06664C3.75283 8.06664 2.60771 7.19444 2.19951 5.98889L2.13968 5.99387L0.564785 7.18832L0.544189 7.24443C1.38318 8.87775 3.10654 10 5.10202 10Z" fill="#34A853"/>
<path d="M2.19952 5.9889C2.09182 5.67779 2.02948 5.34443 2.02948 5C2.02948 4.65554 2.09182 4.32222 2.19386 4.01111L2.191 3.94485L0.596378 2.73122L0.544205 2.75554C0.198415 3.43332 0 4.19445 0 5C0 5.80556 0.198415 6.56664 0.544205 7.24443L2.19952 5.9889Z" fill="#FBBC05"/>
<path d="M5.10202 1.93332C6.06006 1.93332 6.7063 2.33887 7.0748 2.67779L8.5147 1.3C7.63038 0.494447 6.47956 0 5.10202 0C3.10654 0 1.38318 1.12221 0.544189 2.75553L2.19384 4.01111C2.60771 2.80555 3.75283 1.93332 5.10202 1.93332Z" fill="#EB4335"/>
</svg>
