<svg width="10" height="10" viewBox="0 0 10 10" fill="none" xmlns="http://www.w3.org/2000/svg">
<path d="M5 0C2.23 0 0 2.23 0 5C0 7.77 2.23 10 5 10C7.77 10 10 7.77 10 5C10 2.23 7.77 0 5 0ZM5.58529 1.66667C5.78003 1.66667 5.94317 1.7343 6.07509 1.86936C6.21015 2.00442 6.27778 2.16756 6.27778 2.35916C6.27778 2.55076 6.21015 2.71411 6.07509 2.84918C5.94003 2.98424 5.77688 3.05187 5.58529 3.05187C5.39683 3.05187 5.23489 2.98424 5.09983 2.84918C4.96477 2.71411 4.89735 2.55076 4.89735 2.35916C4.89735 2.16756 4.96335 2.00442 5.09527 1.86936C5.23033 1.7343 5.39369 1.66667 5.58529 1.66667ZM5.87739 3.83398V3.88889C5.87189 3.88969 5.86639 3.89026 5.86089 3.89106L4.91146 7.18381C4.85806 7.37541 4.83138 7.50109 4.83138 7.56076C4.83138 7.59531 4.84543 7.62809 4.8737 7.65951C4.90197 7.68777 4.93192 7.70204 4.96332 7.70204C5.01672 7.70204 5.11269 7.70784 5.28885 7.62391C5.45229 7.52489 5.80972 7.30468 6.0076 7L6.38889 7.22222C5.91461 8.0483 5.03396 8.33333 4.5 8.33333C4.29584 8.33333 3.91264 8.27671 3.79015 8.16363C3.67079 8.04742 3.61111 7.90137 3.61111 7.72548C3.61111 7.60927 3.63779 7.4618 3.69119 7.28277L4.34614 5.0306C4.40896 4.81387 4.44032 4.76163 4.44032 4.65169C4.44032 4.58259 4.41059 4.52128 4.35091 4.46788C4.29123 4.41449 4.20955 4.3878 4.1059 4.3878C4.05879 4.3878 4.00216 4.38578 3.9362 4.38889L4 4.11111C4.62126 4.02649 5.24047 3.98071 5.86089 3.89106L5.87739 3.83398Z" fill="white"/>
</svg>
