<svg width="16" height="10" viewBox="0 0 16 10" fill="none" xmlns="http://www.w3.org/2000/svg">
<path d="M7.84699 0C10.9049 0.0411616 13.4611 1.07237 15.5801 3.14685C16.0191 3.57642 16.1194 4.09326 15.8397 4.44948C15.5523 4.81436 14.9827 4.85336 14.4693 4.53583C14.3226 4.44224 14.1857 4.33431 14.0606 4.21365C10.6843 1.02409 5.50644 0.920721 1.98859 3.9769C1.64802 4.27276 1.2759 4.47393 0.810972 4.44298C0.484777 4.42101 0.22232 4.28236 0.0754694 3.98154C-0.0751306 3.67205 0.0148545 3.39011 0.211384 3.13478C0.299528 3.0256 0.397748 2.92479 0.504773 2.83365C2.61724 0.955383 5.1062 0.0467324 7.84699 0Z" fill="white"/>
<path d="M8.06442 3.52194C10.171 3.56403 11.9132 4.35415 13.4626 5.61809C13.6569 5.77655 13.7947 5.99164 13.8869 6.22623C14.0041 6.52396 14.0234 6.82354 13.7972 7.08165C13.5654 7.34564 13.2551 7.38959 12.9277 7.31686C12.5759 7.23887 12.305 7.02347 12.0416 6.79073C9.94099 4.92825 6.82557 4.7995 4.60531 6.48125C4.40628 6.63197 4.22381 6.80404 4.03509 6.96776C3.74545 7.21875 3.41988 7.37535 3.02401 7.34409C2.50847 7.30355 2.20915 6.87244 2.35068 6.38221C2.42478 6.13149 2.56831 5.90634 2.76499 5.73229C4.28193 4.35198 6.04413 3.55134 8.06442 3.52194Z" fill="white"/>
<path d="M8.45747 7.19152C8.99748 7.20118 9.53015 7.31716 10.0245 7.53272C10.5188 7.74828 10.9648 8.05911 11.3367 8.44711C11.602 8.72162 11.785 9.03111 11.6804 9.43746C11.5485 9.95616 10.9199 10.1994 10.4821 9.79709C9.11986 8.54676 7.22487 8.53748 5.78042 9.72559C5.37736 10.0571 5.11865 10.0843 4.79652 9.82865C4.47438 9.57302 4.39627 9.14036 4.61061 8.74545C4.72622 8.53253 4.89525 8.36478 5.08272 8.21314C5.90946 7.54527 6.97647 7.18936 8.45747 7.19152Z" fill="white"/>
</svg>
