<svg width="10" height="16" viewBox="0 0 10 16" fill="none" xmlns="http://www.w3.org/2000/svg">
<path d="M0.00179011 3.68639L0.00179023 0.922863C0.00179025 0.412142 0.414552 -2.27643e-08 0.92604 0L2.67653 7.79073e-08C3.07068 9.54496e-08 3.41622 0.252142 3.55785 0.646437C3.77961 1.25572 4.35906 1.66216 5.00002 1.66216C5.64098 1.66216 6.22043 1.25572 6.44219 0.646438C6.58383 0.252874 6.92935 2.67184e-07 7.32351 2.84726e-07L9.074 3.62633e-07C9.58549 3.85398e-07 9.99825 0.412143 9.99825 0.922863V3.68565C9.99825 3.93209 9.89953 4.16566 9.72712 4.3378L9.39448 4.66994C9.39448 4.66994 0.67775 4.66851 0.605595 4.66994C0.343057 4.40851 -0.0289578 4.09995 0.00179011 3.68639Z" fill="white"/>
<path d="M3.55785 15.3536C3.41621 15.7471 3.07068 16 2.67653 16H0.92604C0.414552 16 0.00178974 15.5879 0.00178976 15.0771L0.00179011 6.88641C-0.0268243 6.47355 0.339449 6.16142 0.605559 5.90212C0.632743 5.89569 9.39444 5.90212 9.39444 5.90212C9.65698 6.16712 10.029 6.4707 9.99821 6.88641V15.0771C9.99821 15.5879 9.58545 16 9.07396 16H7.32347C6.92932 16 6.58378 15.7479 6.44215 15.3536C5.98432 14.0171 4.01495 14.0193 3.55785 15.3536Z" fill="white"/>
</svg>
