<svg width="10" height="10" viewBox="0 0 10 10" fill="none" xmlns="http://www.w3.org/2000/svg">
<path fill-rule="evenodd" clip-rule="evenodd" d="M9.29321 7.59744C9.29271 8.04701 9.11391 8.47803 8.79605 8.79596C8.47818 9.11389 8.0472 9.29277 7.59763 9.29337H2.40271C1.95311 9.29282 1.52192 9.11396 1.20401 8.79602C0.886112 8.47809 0.707294 8.04704 0.706787 7.59744V2.40271C0.707294 1.95311 0.886112 1.52191 1.20401 1.20398C1.52192 0.886042 1.95294 0.70718 2.40255 0.706627H7.59745C8.04702 0.707226 8.47818 0.886108 8.79605 1.20404C9.11391 1.52197 9.29271 1.95299 9.29321 2.40256V7.59744ZM2.40278 0C1.76574 0.000703228 1.15499 0.254078 0.704536 0.704536C0.254078 1.15499 0.000703228 1.76574 0 2.40278V7.59722C0.000703228 8.23426 0.254078 8.84501 0.704536 9.29546C1.15501 9.74594 1.76579 9.99932 2.40286 10H7.5973C8.23436 9.99932 8.84512 9.74594 9.29556 9.29546C9.74601 8.84498 9.99936 8.2342 10 7.59715V2.40285C9.99936 1.7658 9.74601 1.15502 9.29556 0.704543C8.84513 0.254082 8.2344 0.000703308 7.59738 0H2.40278Z" fill="white"/>
<path d="M6.59372 3.72945C6.31297 3.55385 6.1104 3.27279 6.04719 2.94536C6.03354 2.87464 6.02595 2.80178 6.02595 2.72727H5.12991L5.12839 6.17221C5.11342 6.55804 4.78241 6.86762 4.37666 6.86762C4.25055 6.86762 4.13182 6.83744 4.02725 6.78457C3.78746 6.66359 3.62332 6.42251 3.62332 6.14514C3.62332 5.7467 3.96131 5.42247 4.37656 5.42247C4.45413 5.42247 4.52846 5.43479 4.59875 5.45584V4.57833C4.52594 4.56873 4.45201 4.56291 4.37656 4.56291C3.46717 4.56291 2.72727 5.27258 2.72727 6.14514C2.72727 6.68038 3.006 7.1541 3.43147 7.44049C3.69927 7.62104 4.02522 7.72727 4.37666 7.72727C5.28616 7.72727 6.02595 7.01751 6.02595 6.14514V4.39818C6.37739 4.64013 6.80802 4.78275 7.27273 4.78275V3.92309C7.02242 3.92309 6.78931 3.85178 6.59372 3.72945Z" fill="white"/>
</svg>
