<svg width="10" height="10" viewBox="0 0 10 10" fill="none" xmlns="http://www.w3.org/2000/svg">
<path d="M6.66506 2.72727H7.43172L5.75676 4.69397L7.72727 7.37013H6.18432L4.97592 5.74701L3.59318 7.37013H2.82599L4.61755 5.26656L2.72727 2.72727H4.30929L5.40164 4.21082L6.66506 2.72727ZM6.39595 6.89868H6.82081L4.07847 3.17397H3.62261L6.39595 6.89868Z" fill="white"/>
<path fill-rule="evenodd" clip-rule="evenodd" d="M9.29321 7.59744C9.29271 8.04701 9.11391 8.47803 8.79605 8.79596C8.47818 9.11389 8.0472 9.29277 7.59763 9.29337H2.40271C1.95311 9.29282 1.52192 9.11396 1.20401 8.79602C0.886112 8.47809 0.707294 8.04704 0.706787 7.59744V2.40271C0.707294 1.95311 0.886112 1.52191 1.20401 1.20398C1.52192 0.886042 1.95294 0.70718 2.40255 0.706627H7.59745C8.04702 0.707226 8.47818 0.886108 8.79605 1.20404C9.11391 1.52197 9.29271 1.95299 9.29321 2.40256V7.59744ZM2.40278 0C1.76574 0.000703228 1.15499 0.254078 0.704536 0.704536C0.254078 1.15499 0.000703228 1.76574 0 2.40278V7.59722C0.000703228 8.23426 0.254078 8.84501 0.704536 9.29546C1.15501 9.74594 1.76579 9.99932 2.40286 10H7.5973C8.23436 9.99932 8.84512 9.74594 9.29556 9.29546C9.74601 8.84498 9.99936 8.2342 10 7.59715V2.40285C9.99936 1.7658 9.74601 1.15502 9.29556 0.704543C8.84513 0.254082 8.2344 0.000703308 7.59738 0H2.40278Z" fill="white"/>
</svg>
