<svg width="64" height="23" viewBox="0 0 64 23" fill="none" xmlns="http://www.w3.org/2000/svg">
<path d="M60.0417 16.2239H63.2812L64 14.5989H60.0938C59.4271 14.5208 58.7604 14.7396 58.2656 15.1875C57.7708 15.6354 57.4948 16.276 57.5052 16.9479C57.4688 17.5677 57.7083 18.1771 58.1615 18.6042C58.6146 19.0312 59.2344 19.2396 59.8542 19.1614H61.5729C61.8438 19.1042 62.1198 19.2187 62.2708 19.4479C62.4271 19.6771 62.4271 19.9739 62.2708 20.2031C62.1198 20.4323 61.8438 20.5469 61.5729 20.4948H57.7188V22.0937H61.5469C62.625 22.1979 63.6354 21.5625 64 20.5469V18.7604C63.6146 17.9167 62.7344 17.4114 61.8125 17.5052H60C59.7292 17.5625 59.4531 17.4479 59.3021 17.2187C59.1458 16.9896 59.1458 16.6927 59.3021 16.4635C59.4531 16.2344 59.7292 16.1198 60 16.1719L60.0417 16.2239ZM54.8385 17.5573H53.0938C52.8229 17.6146 52.5469 17.5 52.3958 17.2708C52.2396 17.0417 52.2396 16.7448 52.3958 16.5156C52.5469 16.2864 52.8229 16.1719 53.0938 16.2239H56.3333L57.0521 14.625H53.1458C52.4844 14.5469 51.8177 14.7656 51.3229 15.2135C50.8229 15.6614 50.5469 16.3021 50.5573 16.9739C50.5208 17.5937 50.7604 18.2031 51.2135 18.6302C51.6667 19.0573 52.2865 19.2656 52.9062 19.1875H54.6667C54.9375 19.1302 55.2135 19.2448 55.3646 19.4739C55.5208 19.7031 55.5208 20 55.3646 20.2344C55.2135 20.4583 54.9375 20.5729 54.6667 20.5208H50.7708V22.1198H54.6667C55.3385 22.1771 56 21.9375 56.4844 21.4687C56.9688 20.9948 57.224 20.3385 57.1875 19.6667C57.2188 19.0521 56.9792 18.4531 56.5208 18.0312C56.0677 17.6146 55.4531 17.4219 54.8385 17.5052V17.5573ZM49.8125 16.2239V14.625H43.7448V22.0677H49.8125V20.4687H45.5885V19.1354H49.7083V17.5052H45.5885V16.1719L49.8125 16.2239ZM40.0781 17.8802H37.974V16.1458H40.0781C40.3177 16.1146 40.5573 16.1875 40.7344 16.3489C40.9167 16.5052 41.0156 16.7344 41.0156 16.9739C41.0208 17.2135 40.9219 17.4427 40.7396 17.6042C40.5573 17.7656 40.3177 17.8333 40.0781 17.8021V17.8802ZM40.8021 19.375C42.1094 19.2187 43.0469 18.0312 42.8906 16.7187C42.7396 15.4114 41.5521 14.4739 40.2396 14.625H36.1615V22.0677H37.974V19.401H38.8021L41.0417 22.0677H43.3177L40.8021 19.375ZM32.4115 18.0417H30.2552V16.1458H32.4115C32.9219 16.1458 33.3333 16.5573 33.3333 17.0677C33.3333 17.5729 32.9219 17.9844 32.4115 17.9844V18.0417ZM32.5729 14.5989H28.4271V22.0677H30.2552V19.5885H32.5208C33.2188 19.6406 33.9062 19.3958 34.4167 18.9114C34.9219 18.4271 35.2031 17.7552 35.1875 17.0521C35.2135 16.3594 34.9479 15.6875 34.4479 15.2083C33.9479 14.7292 33.2656 14.4896 32.5729 14.5469V14.5989ZM25.0677 18.3333L28.0781 14.5989H25.8646L24 16.9219L22.1458 14.5469H19.8802L22.9323 18.3333L20 22.0677H22.1875L24 19.6667L25.8125 22.0937H28.1042L25.0677 18.3333ZM19.6146 16.1458V14.5469H13.5729V22.0677H19.6146V20.4687H15.3854V19.1354H19.5312V17.5052H15.3854V16.1719L19.6146 16.1458ZM56.8125 0.333318V5.23957L56.3073 4.3854L53.6406 0.385401H51.4115V7.90623H53.1979V2.78644L53.6823 3.61457L56.4688 7.85415H58.6667V0.333318H56.8125ZM45.401 4.81248L46.0938 3.05207L46.5729 1.88019L47.026 3.05207L47.7448 4.81248H45.401ZM47.8542 0.333318H45.4531L42.224 7.85415H44.1719L44.8125 6.33332H48.375L49.0156 7.90623H51.0677L47.8542 0.333318ZM41.4792 1.95832H43.4375V0.333318H41.3333C40.3438 0.270818 39.3698 0.645818 38.6823 1.35936C37.9896 2.0729 37.6406 3.05207 37.7344 4.04165V4.14582C37.6198 5.11978 37.9479 6.09894 38.6198 6.81248C39.2917 7.52603 40.2448 7.90624 41.224 7.85415H41.3333L42.0677 6.25519H41.4688C40.9115 6.28124 40.375 6.06248 40 5.65623C39.625 5.24998 39.4479 4.6979 39.5208 4.14582V4.04165C39.4583 3.49478 39.6354 2.9479 40.0104 2.54686C40.3854 2.14582 40.9167 1.93228 41.4688 1.95832H41.4792ZM34.8125 7.85415H36.6406V0.333318H34.8125V7.85415ZM31.1615 3.58853H29.0521V1.93228H31.1615C31.3958 1.90624 31.6302 1.97915 31.8125 2.14061C31.9896 2.29686 32.0885 2.52082 32.0938 2.7604C32.099 2.99999 32 3.23436 31.8177 3.39061C31.6406 3.55207 31.3958 3.62499 31.1615 3.58853ZM31.8802 5.07811C33.0729 4.93748 33.9635 3.91144 33.9323 2.70832C33.9427 2.02082 33.6562 1.36457 33.1406 0.911443C32.6302 0.45311 31.9479 0.244777 31.2656 0.333318H27.1979V7.85415H29.0521V5.18748H29.8802L32.1198 7.85415H34.3854L31.8802 5.07811ZM26 1.93228V0.333318H20V7.85415H26V6.25519H21.7708V4.92186H25.8906V3.29165H21.7708V1.95832L26 1.93228ZM15.599 0.333318L14.1354 4.68228L13.8906 5.50519L13.651 4.68228L12.1615 0.333318H9.21354V7.85415H10.9844V1.77082L11.3594 2.92186L13.0677 7.85415H14.6667L16.4115 2.92186L16.7604 1.77082V7.85415H18.5208V0.333318H15.599ZM3.17188 4.81248L3.90625 3.05207L4.38542 1.88019L4.86458 3.05207L5.58854 4.81248H3.17188ZM5.64062 0.333318H3.26562L0 7.85415H1.97396L2.66667 6.33332H6.17188L6.8125 7.90623H8.86458L5.64062 0.333318Z" fill="#3B68BB"/>
</svg>
