<svg width="47" height="29" viewBox="0 0 47 29" fill="none" xmlns="http://www.w3.org/2000/svg">
<path d="M16.5312 3.21353H30.1458V25.4531H16.5312V3.21353Z" fill="#F14F1E"/>
<path d="M18 14.3333C17.9792 10.0052 19.9427 5.90626 23.3333 3.21355C17.5312 -1.34895 9.20312 -0.687495 4.19791 4.73438C-0.807302 10.1563 -0.807302 18.5104 4.19791 23.9323C9.20312 29.3542 17.5312 30.0156 23.3333 25.4531C19.9427 22.7604 17.9792 18.6615 18 14.3333Z" fill="#EA1E28"/>
<path d="M45.7604 23.0937V22.5469H45.625L45.4687 22.9323L45.2916 22.5469H45.1614V23.0937H45.2552V22.6823L45.4114 23.0417H45.5208L45.6666 22.6823V23.0937H45.7604ZM44.8541 23.0937V22.6406H45.0521V22.5469H44.5885V22.6406H44.7708V23.0937H44.8541ZM46.2135 14.3333C46.2083 19.7448 43.1198 24.6823 38.25 27.0469C33.3854 29.4115 27.5885 28.7969 23.3333 25.4531C29.4687 20.625 30.526 11.7396 25.7083 5.59895C25.0156 4.70833 24.2187 3.91145 23.3333 3.21353C27.5885 -0.130215 33.3854 -0.744799 38.25 1.61978C43.1198 3.98437 46.2083 8.92187 46.2135 14.3333Z" fill="#F49413"/>
</svg>
