<svg width="40" height="14" viewBox="0 0 40 14" fill="none" xmlns="http://www.w3.org/2000/svg">
<path d="M15.3177 1.14581L10.1458 13.4791H6.66663L4.11975 3.62498C4.07288 3.15623 3.78642 2.74998 3.35933 2.54685C2.35933 2.06769 1.30204 1.71873 0.213501 1.50519L0.291626 1.14581H5.71871C6.45309 1.14581 7.08329 1.67706 7.19788 2.40102L8.53121 9.53123L11.8541 1.14581H15.3177ZM28.4687 9.55727C28.4791 6.23956 24 5.99998 24 4.66665C24 4.22394 24.427 3.7604 25.3333 3.6406C26.4114 3.53123 27.5 3.72394 28.4791 4.18748L29.0416 1.52081C28.0833 1.16144 27.0729 0.979146 26.052 0.973938C22.9062 0.973938 20.7187 2.65102 20.7187 5.05206C20.7187 6.82811 22.3073 7.81248 23.5052 8.40102C24.7083 8.98435 25.1718 9.40102 25.1614 9.93227C25.1614 10.7604 24.1718 11.1354 23.2552 11.1458C22.1198 11.1614 21 10.8854 20 10.3489L19.427 13.0156C20.5573 13.4531 21.7604 13.6771 22.9739 13.6666C26.3177 13.6666 28.5208 12.0156 28.5312 9.4531M36.7864 13.5573H39.7448L37.1614 1.22394H34.4948C33.9062 1.23435 33.3802 1.58852 33.1614 2.1354L28.375 13.5573H31.7343L32.3854 11.7187H36.401L36.7864 13.5573ZM33.2291 9.18748L34.9062 4.55727L35.8802 9.18748H33.2291ZM19.8125 1.18748L17.1458 13.5208H13.9479L16.6145 1.18748H19.8125Z" fill="white"/>
</svg>
