<?xml version="1.0" encoding="utf-8"?><svg xmlns="http://www.w3.org/2000/svg" xmlns:xlink="http://www.w3.org/1999/xlink"><symbol viewBox="0 0 9 10" id="appleb" xmlns="http://www.w3.org/2000/svg"><path d="M6.256 0h.074c.06.705-.22 1.232-.562 1.614-.334.379-.793.746-1.534.69-.05-.695.232-1.182.572-1.563.316-.355.895-.67 1.45-.741ZM8.5 7.34v.02a5.738 5.738 0 0 1-.868 1.605c-.331.437-.737 1.025-1.461 1.025-.626 0-1.042-.386-1.683-.397-.678-.01-1.052.323-1.672.407h-.211c-.456-.063-.824-.41-1.091-.721C.724 8.358.114 7.168 0 5.645v-.448c.048-1.09.6-1.976 1.334-2.405.387-.228.92-.423 1.513-.336.254.038.513.121.741.204.216.08.485.22.74.213.174-.005.346-.092.52-.153.511-.177 1.012-.38 1.672-.284.794.115 1.357.453 1.705.975-.671.41-1.202 1.027-1.111 2.081.08.958.66 1.518 1.386 1.848Z"/></symbol><symbol viewBox="0 0 10 9" id="armchair" xmlns="http://www.w3.org/2000/svg"><path fill-rule="evenodd" clip-rule="evenodd" d="M9.102 9c.484-.005.897-.477.897-1.08H10V5.05c0-.61-.416-1.081-.903-1.081h-.233c-.486 0-.903.472-.903 1.08v1.607c0 .207-.144.399-.349.399H2.388c-.205 0-.35-.192-.35-.399V5.05c0-.608-.416-1.08-.902-1.08H.903C.416 3.969 0 4.44 0 5.049v2.87C0 8.53.416 9 .903 9h8.2ZM2.433 0C1.893 0 1.43.526 1.43 1.199v2.005c.75.164 1.307.936 1.307 1.844v1.208h4.525V5.048c0-.908.557-1.68 1.306-1.844V1.199C8.568.526 8.107 0 7.566 0H2.433Z"/></symbol><symbol viewBox="0 0 6 10" id="arrow" xmlns="http://www.w3.org/2000/svg"><path fill-rule="evenodd" clip-rule="evenodd" d="m5.82 8.943-4.165-3.93L5.82 1.057C6.392.53 5.466-.367 4.895.161L.157 4.644c-.19.185-.218.527-.027.712l4.765 4.483c.571.528 1.497-.369.925-.896Z"/></symbol><symbol viewBox="0 0 10 7" id="arrow-full" xmlns="http://www.w3.org/2000/svg"><path d="M5 7 0 0h10L5 7Z"/></symbol><symbol viewBox="0 0 10 10" id="cancel" xmlns="http://www.w3.org/2000/svg"><path d="M.244 1.423A.833.833 0 1 1 1.423.244L5 3.821 8.577.244a.833.833 0 0 1 1.179 1.179L6.178 5l3.578 3.577a.833.833 0 1 1-1.179 1.179L5 6.178 1.423 9.756A.833.833 0 1 1 .244 8.577L3.821 5 .244 1.423Z"/></symbol><symbol viewBox="0 0 14 10" id="chip" xmlns="http://www.w3.org/2000/svg"><g clip-path="url(#fa)"><path d="M4.004 6.985H0v1.669C0 9.392.605 10 1.358 10H4.89c.458-.292.76-.8.76-1.377 0-.9-.737-1.638-1.645-1.638Zm5.681 0c-.908 0-1.645.738-1.645 1.638 0 .577.303 1.085.76 1.377h3.842C13.395 10 14 9.392 14 8.654v-1.67H9.685ZM12.642 0H1.358C.605 0 0 .6 0 1.346v1.985h4.198a.673.673 0 1 0 0-1.346.287.287 0 0 1-.294-.285c0-.162.131-.292.294-.292.691 0 1.258.561 1.258 1.254 0 .692-.567 1.246-1.258 1.246H3.166v2.5h.838c1.227 0 2.228.992 2.228 2.215 0 .515-.179 1-.481 1.377h2.188a2.201 2.201 0 0 1-.481-1.377 2.224 2.224 0 0 1 2.227-2.215h.838v-2.5H9.491c-.69 0-1.257-.554-1.257-1.246 0-.693.566-1.254 1.257-1.254.163 0 .295.13.295.292a.287.287 0 0 1-.295.285.673.673 0 1 0 0 1.346H14V1.346C14 .6 13.395 0 12.642 0ZM0 3.908v2.5h2.584v-2.5H0Z"/><path d="M14 3.908h-2.895v2.5H14v-2.5Z"/></g><defs><clipPath id="fa"><path d="M0 0h14v10H0z"/></clipPath></defs></symbol><symbol viewBox="0 0 5 10" id="facebookb" xmlns="http://www.w3.org/2000/svg"><path d="M3.245 10V5.438H4.72l.22-1.777H3.245V2.526c0-.515.138-.866.849-.866H5V.07A11.7 11.7 0 0 0 3.68 0C2.372 0 1.477.828 1.477 2.35v1.31H0V5.44h1.478V10h1.767Z"/></symbol><symbol viewBox="0 0 10 9" id="film" xmlns="http://www.w3.org/2000/svg"><path d="M7.242 7.084h1.426c.077 0 .112.059.112.184v.733c0 .126-.035.184-.112.184H7.242c-.077 0-.113-.058-.113-.184v-.733c0-.125.036-.184.113-.184Zm-2.955 0h1.426c.077 0 .112.059.112.184v.733c0 .126-.035.184-.112.184H4.287c-.077 0-.112-.058-.112-.184v-.733c0-.125.035-.184.112-.184Zm-2.955 0h1.426c.077 0 .112.059.112.184v.733c0 .126-.035.184-.112.184H1.332c-.077 0-.113-.058-.113-.184v-.733c0-.125.036-.184.113-.184Zm4.59-4.417h2.432c.292 0 .426.124.426.395v2.876c0 .27-.134.394-.426.394H5.922c-.292 0-.426-.123-.426-.394V3.062c0-.27.134-.395.426-.395Zm-4.276 0h2.432c.292 0 .426.124.426.395v2.876c0 .27-.134.394-.426.394H1.646c-.292 0-.426-.123-.426-.394V3.062c0-.27.133-.395.426-.395ZM7.242.815h1.426c.077 0 .112.057.112.184v.733c0 .125-.035.183-.112.183H7.242c-.077 0-.113-.058-.113-.183V.999c0-.127.036-.184.113-.184Zm-2.955 0h1.426c.077 0 .112.057.112.184v.733c0 .125-.035.183-.112.183H4.287c-.077 0-.112-.058-.112-.183V.999c0-.127.035-.184.112-.184Zm-2.955 0h1.426c.077 0 .112.057.112.184v.733c0 .125-.035.183-.112.183H1.332c-.077 0-.113-.058-.113-.183V.999c0-.127.036-.184.113-.184ZM1.076 0C.338 0 0 .304 0 .968v7.064C0 8.696.338 9 1.076 9h7.848C9.662 9 10 8.696 10 8.032V.968C10 .304 9.662 0 8.924 0H1.076Z"/></symbol><symbol viewBox="0 0 10 10" id="gift" xmlns="http://www.w3.org/2000/svg"><path d="M9.333 5.357V8.93c0 .283-.106.556-.293.756a.97.97 0 0 1-.707.315h-3V5H9c.088 0 .173.038.235.105a.372.372 0 0 1 .098.252Zm-8.666 0V8.93c0 .283.106.556.293.756a.97.97 0 0 0 .707.315h3V5H1a.324.324 0 0 0-.235.105.372.372 0 0 0-.098.252ZM10 2.857v.714c0 .19-.07.371-.196.505a.647.647 0 0 1-.47.21H.666a.647.647 0 0 1-.471-.21A.743.743 0 0 1 0 3.57v-.714c0-.19.07-.37.196-.504a.647.647 0 0 1 .47-.21H2.1A1.47 1.47 0 0 1 2.09.689c.183-.32.476-.552.816-.644.34-.093.7-.04 1.004.148.373.228.813 1.014 1.09 1.575.277-.561.717-1.347 1.09-1.575.304-.188.664-.241 1.004-.148.34.092.633.324.816.644a1.47 1.47 0 0 1-.01 1.454h1.433c.177 0 .346.076.471.21a.743.743 0 0 1 .196.504Zm-5.57-.718A4.623 4.623 0 0 0 3.577.811a.657.657 0 0 0-.671-.007.69.69 0 0 0-.33.504.72.72 0 0 0 .126.512.662.662 0 0 0 .191.18c.4.124.818.172 1.234.143.1 0 .2 0 .303-.004Zm2.91-1.082a.684.684 0 0 0-.412-.322.64.64 0 0 0-.505.076 4.623 4.623 0 0 0-.853 1.328c.103.004.203.004.303.004.416.029.833-.02 1.234-.143a.662.662 0 0 0 .191-.18.713.713 0 0 0 .042-.763Z"/></symbol><symbol viewBox="0 0 10 10" id="globe" xmlns="http://www.w3.org/2000/svg"><path fill-rule="evenodd" clip-rule="evenodd" d="M5.001 0c1.38 0 2.63.56 3.536 1.466A4.985 4.985 0 0 1 10 5 4.993 4.993 0 0 1 5.001 10a4.985 4.985 0 0 1-3.535-1.463A4.985 4.985 0 0 1 0 5C0 3.62.56 2.37 1.466 1.466A4.976 4.976 0 0 1 5 0Zm2.984 2.018a4.184 4.184 0 0 0-1.013-.75c.06.091.116.185.17.284.444.803.734 1.872.786 3.058h1.275a4.187 4.187 0 0 0-1.218-2.592Zm0 5.967A4.2 4.2 0 0 0 9.203 5.39H7.928c-.052 1.186-.342 2.255-.785 3.058a3.937 3.937 0 0 1-.171.284 4.24 4.24 0 0 0 1.013-.747Zm-5.967 0c.297.297.636.55 1.012.747a3.936 3.936 0 0 1-.17-.284c-.444-.803-.733-1.872-.788-3.058H.8a4.2 4.2 0 0 0 1.218 2.595Zm0-5.967A4.187 4.187 0 0 0 .8 4.61h1.272c.055-1.186.344-2.255.788-3.058a4.56 4.56 0 0 1 .17-.284c-.376.198-.715.45-1.012.75ZM5.39.854V4.61h1.758c-.052-1.05-.305-1.988-.688-2.681-.298-.54-.666-.921-1.07-1.075Zm0 4.536v3.756c.404-.154.772-.535 1.07-1.072.383-.696.636-1.634.688-2.684H5.39Zm-.78 3.756V5.39H2.855c.05 1.05.304 1.988.688 2.684.297.537.666.918 1.067 1.072Zm0-4.536V.854c-.401.154-.77.535-1.067 1.075-.384.693-.639 1.631-.688 2.681H4.61Z"/></symbol><symbol viewBox="0 0 10 10" id="googleb" xmlns="http://www.w3.org/2000/svg"><path d="M10 5.111c0-.411-.034-.711-.108-1.022h-4.79v1.855h2.812C7.857 6.406 7.55 7.1 6.87 7.567l-.01.062 1.515 1.15.105.01C9.444 7.917 10 6.633 10 5.11Z"/><path d="M5.102 10c1.378 0 2.534-.444 3.379-1.211L6.87 7.567c-.431.294-1.01.5-1.769.5A3.066 3.066 0 0 1 2.2 5.989l-.06.005L.565 7.188l-.02.056A5.11 5.11 0 0 0 5.101 10Z"/><path d="M2.2 5.989A3.023 3.023 0 0 1 2.03 5c0-.344.062-.678.164-.989l-.003-.066L.596 2.73l-.052.025A4.923 4.923 0 0 0 0 5c0 .806.198 1.567.544 2.244L2.2 5.99Z"/><path d="M5.102 1.933c.958 0 1.604.406 1.973.745L8.515 1.3C7.63.494 6.48 0 5.102 0A5.11 5.11 0 0 0 .544 2.756l1.65 1.255a3.078 3.078 0 0 1 2.908-2.078Z"/></symbol><symbol viewBox="0 0 10 10" id="info" xmlns="http://www.w3.org/2000/svg"><path d="M5 0C2.23 0 0 2.23 0 5s2.23 5 5 5 5-2.23 5-5-2.23-5-5-5Zm.585 1.667c.195 0 .358.067.49.202a.667.667 0 0 1 .203.49.668.668 0 0 1-.203.49.667.667 0 0 1-.49.203.663.663 0 0 1-.485-.203.667.667 0 0 1-.203-.49c0-.191.066-.355.198-.49a.668.668 0 0 1 .49-.202Zm.292 2.167v.055l-.016.002-.95 3.293c-.053.191-.08.317-.08.377 0 .034.014.067.043.099a.127.127 0 0 0 .09.042c.053 0 .149.006.325-.078.163-.1.52-.32.719-.624l.38.222c-.473.826-1.354 1.111-1.888 1.111-.204 0-.587-.056-.71-.17a.586.586 0 0 1-.179-.438c0-.116.027-.263.08-.442l.655-2.252c.063-.217.094-.27.094-.38 0-.068-.03-.13-.09-.183a.354.354 0 0 0-.244-.08c-.047 0-.104-.002-.17 0L4 4.112c.621-.085 1.24-.13 1.86-.22l.017-.057Z"/></symbol><symbol viewBox="0 0 10 10" id="instagram" xmlns="http://www.w3.org/2000/svg"><path fill-rule="evenodd" clip-rule="evenodd" d="M9.293 7.597a1.698 1.698 0 0 1-1.695 1.696H2.403A1.698 1.698 0 0 1 .707 7.597V2.403A1.698 1.698 0 0 1 2.403.707h5.194a1.698 1.698 0 0 1 1.696 1.696v5.194ZM2.403 0A2.405 2.405 0 0 0 0 2.403v5.194A2.405 2.405 0 0 0 2.403 10h5.194A2.405 2.405 0 0 0 10 7.597V2.403A2.405 2.405 0 0 0 7.597 0H2.403Z"/><path fill-rule="evenodd" clip-rule="evenodd" d="M5 6.444a1.604 1.604 0 1 1 0-3.209 1.604 1.604 0 0 1 0 3.209Zm0-3.916a2.311 2.311 0 1 0 0 4.623 2.311 2.311 0 0 0 0-4.623ZM7.545 1.776a.519.519 0 1 0 0 1.037.519.519 0 0 0 0-1.037Z"/></symbol><symbol viewBox="0 0 10 13" id="login" xmlns="http://www.w3.org/2000/svg"><path d="M3.26 7.367v1.226a.709.709 0 0 0 .824.704.714.714 0 0 0 .366-.173L6.652 7.15a.884.884 0 0 0 0-1.32L4.45 3.878a.714.714 0 0 0-1.19.529v1.226H0v-3.9c0-.46.183-.9.51-1.225A1.742 1.742 0 0 1 1.74 0h6.52c.462 0 .904.183 1.23.508.327.325.51.766.51 1.225v9.534c0 .46-.183.9-.51 1.225A1.742 1.742 0 0 1 8.26 13H1.74c-.462 0-.904-.183-1.23-.508A1.73 1.73 0 0 1 0 11.267v-3.9h3.26Z"/></symbol><symbol viewBox="0 0 7 10" id="pause" xmlns="http://www.w3.org/2000/svg"><path d="M0 .714C0 .32.373 0 .833 0c.46 0 .834.32.834.714v8.572c0 .394-.373.714-.834.714C.373 10 0 9.68 0 9.286V.714ZM5 .714C5 .32 5.373 0 5.833 0c.46 0 .834.32.834.714v8.572c0 .394-.373.714-.834.714C5.373 10 5 9.68 5 9.286V.714Z"/></symbol><symbol viewBox="0 0 9 10" id="play" xmlns="http://www.w3.org/2000/svg"><path d="M8.352 4.301a.813.813 0 0 1 0 1.398L1.193 9.89C.663 10.2 0 9.813 0 9.192V.808C0 .187.663-.202 1.193.109l7.16 4.192Z"/></symbol><symbol viewBox="0 0 10 10" id="plus" xmlns="http://www.w3.org/2000/svg"><path d="M0 5.805v-1.61h10v1.61H0ZM4.203 10V0h1.584v10H4.203Z"/></symbol><symbol viewBox="0 0 10 10" id="profile" xmlns="http://www.w3.org/2000/svg"><path d="M9.938 9.15A5.515 5.515 0 0 0 5 6.08 5.514 5.514 0 0 0 .062 9.15a.59.59 0 0 0 .526.85h8.824a.59.59 0 0 0 .526-.85ZM5 5.615a2.8 2.8 0 0 0 2.792-2.808A2.8 2.8 0 0 0 5 0a2.8 2.8 0 0 0-2.792 2.807A2.8 2.8 0 0 0 5 5.615Z"/></symbol><symbol viewBox="0 0 16 10" id="signal" xmlns="http://www.w3.org/2000/svg"><path d="M7.847 0c3.058.041 5.614 1.072 7.733 3.147.44.43.54.946.26 1.302-.288.365-.857.404-1.37.087a2.613 2.613 0 0 1-.41-.322C10.685 1.024 5.507.92 1.99 3.977c-.341.296-.713.497-1.178.466-.326-.022-.589-.16-.736-.461-.15-.31-.06-.592.136-.847.089-.11.187-.21.294-.301C2.617.955 5.106.047 7.847 0Z"/><path d="M8.064 3.522c2.107.042 3.85.832 5.399 2.096.194.159.332.374.424.608.117.298.136.598-.09.856-.232.264-.542.308-.87.235-.351-.078-.622-.294-.885-.526-2.101-1.863-5.216-1.992-7.437-.31-.199.151-.381.323-.57.487-.29.25-.615.407-1.011.376-.516-.04-.815-.472-.673-.962.074-.25.217-.476.414-.65 1.517-1.38 3.28-2.18 5.3-2.21Z"/><path d="M8.457 7.192a4.105 4.105 0 0 1 2.88 1.255c.265.275.448.584.343.99-.131.52-.76.762-1.198.36-1.362-1.25-3.257-1.26-4.702-.071-.403.331-.661.358-.983.103-.323-.256-.4-.689-.186-1.084.115-.212.284-.38.472-.532.826-.668 1.893-1.024 3.374-1.021Z"/></symbol><symbol viewBox="0 0 12 11" id="star" xmlns="http://www.w3.org/2000/svg"><path fill-rule="evenodd" clip-rule="evenodd" d="M7.776 3.9v.001L12 4.202 8.766 6.838a.192.192 0 0 0-.064.206L9.708 11 6.107 8.85a.21.21 0 0 0-.217.002l-3.598 2.147L3.3 7.033a.19.19 0 0 0-.066-.195L0 4.202l4.224-.301a.203.203 0 0 0 .18-.137L6 0l1.603 3.78c.03.07.099.116.173.12Z"/></symbol><symbol viewBox="0 0 10 16" id="ticket" xmlns="http://www.w3.org/2000/svg"><path d="M.002 3.686V.923C.002.413.415 0 .926 0h1.75c.395 0 .74.252.882.646.222.61.801 1.016 1.442 1.016.641 0 1.22-.406 1.442-1.016C6.584.253 6.93 0 7.324 0h1.75c.511 0 .924.412.924.923v2.763a.92.92 0 0 1-.27.652l-.334.332H.606C.343 4.409-.03 4.1.002 3.686ZM3.558 15.354c-.142.393-.487.646-.881.646H.926a.922.922 0 0 1-.924-.923v-8.19c-.029-.413.337-.726.604-.985.027-.006 8.788 0 8.788 0 .263.265.635.569.604.984v8.191c0 .51-.413.923-.924.923h-1.75c-.395 0-.74-.252-.882-.646-.458-1.337-2.427-1.335-2.884 0Z"/></symbol><symbol viewBox="0 0 10 10" id="tiktok" xmlns="http://www.w3.org/2000/svg"><path fill-rule="evenodd" clip-rule="evenodd" d="M9.293 7.597a1.698 1.698 0 0 1-1.695 1.696H2.403A1.698 1.698 0 0 1 .707 7.597V2.403A1.698 1.698 0 0 1 2.403.707h5.194a1.698 1.698 0 0 1 1.696 1.696v5.194ZM2.403 0A2.405 2.405 0 0 0 0 2.403v5.194A2.405 2.405 0 0 0 2.403 10h5.194A2.405 2.405 0 0 0 10 7.597V2.403A2.405 2.405 0 0 0 7.597 0H2.403Z"/><path d="M6.594 3.73a1.198 1.198 0 0 1-.568-1.003H5.13l-.002 3.445a.74.74 0 0 1-.751.696.772.772 0 0 1-.35-.083.72.72 0 0 1-.404-.64c0-.398.338-.723.754-.723.077 0 .151.013.222.034v-.878a1.696 1.696 0 0 0-.222-.015c-.91 0-1.65.71-1.65 1.582 0 .535.279 1.01.704 1.295.268.181.594.287.946.287.91 0 1.649-.71 1.649-1.582V4.398c.351.242.782.385 1.247.385v-.86c-.25 0-.484-.071-.68-.194Z"/></symbol><symbol viewBox="0 0 10 10" id="x" xmlns="http://www.w3.org/2000/svg"><path d="M6.665 2.727h.767L5.757 4.694l1.97 2.676H6.184L4.976 5.747 3.593 7.37h-.767l1.792-2.103-1.89-2.54h1.581l1.093 1.484 1.263-1.484ZM6.396 6.9h.425L4.078 3.174h-.455l2.773 3.725Z"/><path fill-rule="evenodd" clip-rule="evenodd" d="M9.293 7.597a1.698 1.698 0 0 1-1.695 1.696H2.403A1.698 1.698 0 0 1 .707 7.597V2.403A1.698 1.698 0 0 1 2.403.707h5.194a1.698 1.698 0 0 1 1.696 1.696v5.194ZM2.403 0A2.405 2.405 0 0 0 0 2.403v5.194A2.405 2.405 0 0 0 2.403 10h5.194A2.405 2.405 0 0 0 10 7.597V2.403A2.405 2.405 0 0 0 7.597 0H2.403Z"/></symbol></svg>