<svg width="54" height="27" viewBox="0 0 54 27" fill="none" xmlns="http://www.w3.org/2000/svg">
<path d="M38.5818 14.3428C42.395 14.3428 45.4862 11.2563 45.4862 7.44886C45.4862 3.64141 42.395 0.554863 38.5818 0.554863C34.7686 0.554863 31.6774 3.64141 31.6774 7.44886C31.6774 11.2563 34.7686 14.3428 38.5818 14.3428Z" fill="#40BCF4"/>
<path d="M26.8653 14.3428C30.6784 14.3428 33.7696 11.2563 33.7696 7.44886C33.7696 3.64141 30.6784 0.554863 26.8653 0.554863C23.0521 0.554863 19.9609 3.64141 19.9609 7.44886C19.9609 11.2563 23.0521 14.3428 26.8653 14.3428Z" fill="#00E054"/>
<path d="M15.1488 14.3428C18.9619 14.3428 22.0531 11.2563 22.0531 7.44886C22.0531 3.64141 18.9619 0.554863 15.1488 0.554863C11.3356 0.554863 8.24438 3.64141 8.24438 7.44886C8.24438 11.2563 11.3356 14.3428 15.1488 14.3428Z" fill="#FF8000"/>
<path fill-rule="evenodd" clip-rule="evenodd" d="M21.007 11.099C20.344 10.0404 19.9609 8.78928 19.9609 7.44877C19.9609 6.10827 20.344 4.85713 21.007 3.79859C21.6699 4.85713 22.0531 6.10827 22.0531 7.44877C22.0531 8.78928 21.6699 10.0404 21.007 11.099Z" fill="white"/>
<path fill-rule="evenodd" clip-rule="evenodd" d="M32.7235 3.79859C33.3865 4.85713 33.7697 6.10827 33.7697 7.44877C33.7697 8.78928 33.3865 10.0404 32.7235 11.099C32.0606 10.0404 31.6774 8.78928 31.6774 7.44877C31.6774 6.10827 32.0606 4.85713 32.7235 3.79859Z" fill="white"/>
<path fill-rule="evenodd" clip-rule="evenodd" d="M15.3767 20.2166C15.5924 20.2166 15.7395 20.1968 15.9355 20.1572C16.2983 20.1078 16.4354 19.9494 16.4943 19.4644C16.5237 19.2269 16.5432 19.019 16.5531 18.7815H18.0236V20.2166H19.3766V21.81H18.0236V23.1856C18.0236 24.1753 18.1707 24.2843 19.0138 24.2843H19.3766V25.9568H18.4745C16.759 25.9568 16.3374 25.3334 16.3374 23.542V21.81H15.8607H13.9692V23.1856C13.9692 24.1753 14.1162 24.2843 14.9592 24.2843H15.322V25.9568H14.42C12.7044 25.9568 12.283 25.3334 12.283 23.542V21.81H11.3223V20.3155C11.5379 20.3155 11.6849 20.2958 11.881 20.2561C12.2437 20.2067 12.381 20.0483 12.4398 19.5634C12.4692 19.3258 12.4888 19.019 12.4985 18.7815H13.9692V20.2166H15.3767ZM0 18.8606H1.84307V24.1853H4.79386V25.9568H0V18.8606ZM8.18535 26.1053C6.21489 26.1053 5.29341 24.9969 5.29341 23.2253V23.057C5.29341 21.2162 6.4404 20.0979 8.21472 20.0979C10.2246 20.0979 11.0774 21.4141 11.0774 22.968V23.6113H7.06785C7.15595 24.304 7.54822 24.6801 8.23441 24.6801C8.73437 24.6801 9.00893 24.4624 9.1461 24.1359H11.0382C10.7245 25.3432 9.84219 26.1053 8.18535 26.1053ZM7.06785 22.483H9.31287C9.23432 21.8397 8.90113 21.4636 8.23441 21.4636C7.5678 21.4636 7.18544 21.81 7.06785 22.483ZM22.6996 26.1053C20.7291 26.1053 19.8076 24.9969 19.8076 23.2253V23.057C19.8076 21.2162 20.9545 20.0979 22.729 20.0979C24.7387 20.0979 25.5915 21.4141 25.5915 22.968V23.6113H21.582C21.6703 24.304 22.0624 24.6801 22.7485 24.6801C23.2486 24.6801 23.5231 24.4624 23.6604 24.1359H25.5524C25.2387 25.3432 24.3563 26.1053 22.6996 26.1053ZM21.582 22.483H23.827C23.7486 21.8397 23.4153 21.4636 22.7485 21.4636C22.0819 21.4636 21.6997 21.81 21.582 22.483ZM26.3265 25.9568V20.2166H27.7578L28.0029 21.3943C28.1893 20.5036 28.7675 20.1374 29.7871 20.1374H30.1107V22.0277H29.4442C28.4048 22.0277 28.15 22.394 28.15 23.4133V25.9568H26.3265ZM32.4436 24.9969L32.3062 25.9568H30.7475V18.3362H32.5122V21.137C32.8161 20.4838 33.3847 20.0979 34.1787 20.0979C35.4532 20.1077 36.3945 20.9885 36.3945 22.9284V23.1065C36.3945 25.0562 35.5414 26.1052 34.1395 26.1052C33.2768 26.1052 32.7181 25.6698 32.4436 24.9969ZM34.62 23.0966V22.958C34.62 22.0475 34.1886 21.5923 33.5709 21.5923C32.9239 21.5923 32.4828 22.097 32.4828 22.9382V23.067C32.4828 24.0665 32.9141 24.5317 33.5613 24.5317C34.2181 24.5317 34.62 24.1062 34.62 23.0966ZM36.9428 23.2253V23.0471C36.9428 21.0974 38.1389 20.0979 39.8151 20.0979C41.521 20.0979 42.6779 21.1271 42.6779 23.0471V23.2253C42.6779 25.1354 41.5406 26.1052 39.8055 26.1052C37.9624 26.1052 36.9428 25.1354 36.9428 23.2253ZM40.9035 23.2054V23.0471C40.9035 22.1069 40.5113 21.622 39.825 21.622C39.1583 21.622 38.7172 22.0872 38.7172 23.0471V23.2054C38.7172 24.0863 39.1583 24.5515 39.8151 24.5515C40.4721 24.5515 40.9035 24.1062 40.9035 23.2054ZM45.5204 24.3338L44.4813 25.9568H42.3833L44.4813 22.968L42.5794 20.2166H44.5989L45.5303 21.6714L46.4614 20.2166H48.4713L46.5791 22.9482L48.5987 25.9568H46.5595L45.5204 24.3338ZM52.3139 24.9573C52.0295 25.6302 51.4609 26.0658 50.5885 26.0658C49.2159 26.0658 48.3532 25.0661 48.3532 23.0966V22.9283C48.3532 20.9984 49.2945 20.1077 50.5982 20.1077C51.4218 20.1077 51.961 20.4542 52.2453 21.0381V18.3362H54V25.9568H52.4806L52.3139 24.9573ZM52.2648 23.0867V22.958C52.2648 22.0872 51.8433 21.5923 51.2062 21.5923C50.5395 21.5923 50.1474 22.0574 50.1474 22.958V23.0867C50.1474 24.1161 50.5688 24.5317 51.1766 24.5317C51.8335 24.5317 52.2648 24.0566 52.2648 23.0867Z" fill="white"/>
</svg>
