<svg width="38" height="18" viewBox="0 0 38 18" fill="none" xmlns="http://www.w3.org/2000/svg">
<path d="M35.6199 13.1871H2.38009C1.0656 13.1871 0 14.2608 0 15.5853V15.6018C0 16.9263 1.0656 18 2.38009 18H35.6199C36.9344 18 38 16.9263 38 15.6018V15.5853C38 14.2608 36.9344 13.1871 35.6199 13.1871Z" fill="url(#paint0_linear_138_250)"/>
<path d="M1.16687 9.7146V4.24773H0.237142V2.8361H1.16687V2.28428C1.16687 1.83512 1.24116 1.4651 1.38975 1.17422C1.54258 0.88334 1.78244 0.667317 2.10933 0.526154C2.44046 0.384991 2.87561 0.314409 3.41476 0.314409C3.58457 0.314409 3.75651 0.322965 3.93057 0.340075C4.10463 0.352908 4.24472 0.370019 4.35085 0.391407V1.62979C4.28717 1.61696 4.21288 1.60841 4.12797 1.60413C4.04307 1.59985 3.95816 1.59771 3.87326 1.59771C3.56759 1.59771 3.34259 1.66188 3.19825 1.79021C3.05391 1.91854 2.98174 2.10676 2.98174 2.35486V2.8361H4.33812V4.24773H3.02632V9.7146H1.16687Z" fill="white"/>
<path d="M5.35699 9.7146V2.8361H7.21644V9.7146H5.35699ZM6.28672 1.95062C6.00653 1.95062 5.77091 1.85437 5.57987 1.66188C5.38883 1.46938 5.29331 1.24053 5.29331 0.97531C5.29331 0.705816 5.38883 0.476961 5.57987 0.288743C5.77091 0.0962477 6.00653 0 6.28672 0C6.56691 0 6.80253 0.0962477 6.99356 0.288743C7.1846 0.476961 7.28012 0.705816 7.28012 0.97531C7.28012 1.24053 7.1846 1.46938 6.99356 1.66188C6.80253 1.85437 6.56691 1.95062 6.28672 1.95062Z" fill="white"/>
<path d="M8.50914 9.7146V0.455572H10.3686V9.7146H8.50914Z" fill="white"/>
<path d="M11.6231 9.7146V2.8361H13.4825V3.99107H13.5207C13.6608 3.59752 13.8986 3.28312 14.234 3.04784C14.5736 2.81257 14.9726 2.69494 15.4311 2.69494C15.7495 2.69494 16.0361 2.75055 16.2908 2.86176C16.5455 2.97298 16.7599 3.1334 16.934 3.343C17.1123 3.55261 17.2375 3.80927 17.3097 4.11298H17.3479C17.4498 3.8221 17.6026 3.57186 17.8064 3.36225C18.0144 3.14837 18.2585 2.98368 18.5387 2.86818C18.8231 2.75268 19.133 2.69494 19.4684 2.69494C19.9142 2.69494 20.3048 2.79118 20.6401 2.98368C20.9755 3.17617 21.2366 3.44567 21.4234 3.79216C21.6102 4.13865 21.7036 4.54503 21.7036 5.0113V9.7146H19.8441V5.4797C19.8441 5.21449 19.7996 4.98991 19.7104 4.80597C19.6255 4.62203 19.5003 4.483 19.3347 4.3889C19.1734 4.29479 18.9717 4.24773 18.7297 4.24773C18.4963 4.24773 18.2904 4.3012 18.112 4.40814C17.938 4.51509 17.8021 4.66481 17.7045 4.8573C17.6069 5.0498 17.558 5.27437 17.558 5.53103V9.7146H15.7686V5.42195C15.7686 5.17385 15.7241 4.9621 15.6349 4.78672C15.5458 4.61133 15.4184 4.47873 15.2528 4.3889C15.0915 4.29479 14.8962 4.24773 14.667 4.24773C14.4335 4.24773 14.2276 4.30334 14.0493 4.41456C13.871 4.52578 13.7309 4.67978 13.629 4.87655C13.5314 5.07332 13.4825 5.30218 13.4825 5.56312V9.7146H11.6231Z" fill="white"/>
<path d="M25.6899 9.85576C25.0616 9.85576 24.5267 9.76379 24.0852 9.57985C23.6437 9.39591 23.2977 9.14139 23.0472 8.81629C22.801 8.48691 22.6524 8.1062 22.6015 7.67415L22.5951 7.6164H24.41L24.4227 7.67415C24.4821 7.94364 24.6159 8.15325 24.8239 8.30297C25.0319 8.45269 25.3206 8.52755 25.6899 8.52755C25.9277 8.52755 26.1293 8.49974 26.2949 8.44413C26.4605 8.38424 26.5878 8.30083 26.677 8.19389C26.7704 8.08695 26.8171 7.95862 26.8171 7.8089V7.80248C26.8171 7.61854 26.7513 7.47096 26.6197 7.35974C26.4881 7.24852 26.2546 7.15441 25.9192 7.07741L24.7602 6.83359C24.3187 6.73948 23.9494 6.60473 23.6522 6.42935C23.3593 6.24968 23.1385 6.02938 22.9899 5.76845C22.8413 5.50323 22.767 5.19951 22.767 4.8573V4.85088C22.767 4.41028 22.8838 4.02957 23.1173 3.70874C23.3508 3.38792 23.6819 3.13981 24.1107 2.96443C24.5437 2.78477 25.0489 2.69494 25.6263 2.69494C26.2291 2.69494 26.7407 2.79332 27.1609 2.9901C27.5855 3.18259 27.9102 3.44353 28.1352 3.77291C28.3645 4.10229 28.4855 4.46803 28.4982 4.87013V4.9343H26.7852L26.7789 4.88297C26.7491 4.63486 26.6345 4.42953 26.435 4.26698C26.2397 4.10015 25.9701 4.01674 25.6263 4.01674C25.414 4.01674 25.2293 4.04668 25.0722 4.10657C24.9152 4.16646 24.7942 4.25201 24.7093 4.36323C24.6244 4.47017 24.5819 4.5985 24.5819 4.74822V4.75464C24.5819 4.87013 24.6095 4.97494 24.6647 5.06905C24.7241 5.15888 24.8218 5.23801 24.9576 5.30646C25.0935 5.3749 25.276 5.43479 25.5053 5.48612L26.6642 5.73636C27.3817 5.88608 27.8954 6.11066 28.2053 6.4101C28.5194 6.70953 28.6765 7.11164 28.6765 7.6164V7.62282C28.6765 8.07197 28.5492 8.46338 28.2944 8.79704C28.0397 9.1307 27.6874 9.39164 27.2374 9.57985C26.7916 9.76379 26.2758 9.85576 25.6899 9.85576Z" fill="white"/>
<path d="M30.5614 9.82368C30.2728 9.82368 30.0287 9.72316 29.8291 9.52211C29.6296 9.32105 29.5298 9.07509 29.5298 8.78421C29.5298 8.49332 29.6296 8.24736 29.8291 8.04631C30.0287 7.84526 30.2728 7.74473 30.5614 7.74473C30.8501 7.74473 31.0942 7.84526 31.2938 8.04631C31.4933 8.24736 31.5931 8.49332 31.5931 8.78421C31.5931 9.07509 31.4933 9.32105 31.2938 9.52211C31.0942 9.72316 30.8501 9.82368 30.5614 9.82368Z" fill="white"/>
<path d="M3.14629 13.1871H2.38009C1.0656 13.1871 0 14.2608 0 15.5853V15.6018C0 16.9263 1.0656 18 2.38009 18H3.14629C4.46078 18 5.52638 16.9263 5.52638 15.6018V15.5853C5.52638 14.2608 4.46078 13.1871 3.14629 13.1871Z" fill="white"/>
<defs>
<linearGradient id="paint0_linear_138_250" x1="0" y1="9.03072" x2="38.0163" y2="9.03072" gradientUnits="userSpaceOnUse">
<stop/>
<stop offset="0.02" stop-color="#1F0404"/>
<stop offset="0.05" stop-color="#5A0E0D"/>
<stop offset="0.09" stop-color="#8C1614"/>
<stop offset="0.12" stop-color="#B21C19"/>
<stop offset="0.15" stop-color="#CE201D"/>
<stop offset="0.17" stop-color="#DF2320"/>
<stop offset="0.19" stop-color="#E52421"/>
<stop offset="0.22" stop-color="#E52920"/>
<stop offset="0.25" stop-color="#E8391D"/>
<stop offset="0.28" stop-color="#EC5418"/>
<stop offset="0.32" stop-color="#F17911"/>
<stop offset="0.36" stop-color="#F8A809"/>
<stop offset="0.39" stop-color="#FFD402"/>
<stop offset="0.4" stop-color="#FFD715"/>
<stop offset="0.43" stop-color="#FFE567"/>
<stop offset="0.45" stop-color="#FFF0A8"/>
<stop offset="0.47" stop-color="#FFF8D7"/>
<stop offset="0.49" stop-color="#FFFDF4"/>
<stop offset="0.5" stop-color="white"/>
<stop offset="0.53" stop-color="#D6EFF7"/>
<stop offset="0.57" stop-color="#B0E1EF"/>
<stop offset="0.6" stop-color="#92D5E9"/>
<stop offset="0.64" stop-color="#7DCDE5"/>
<stop offset="0.67" stop-color="#70C8E2"/>
<stop offset="0.71" stop-color="#66BBDA"/>
<stop offset="0.75" stop-color="#5392BF"/>
<stop offset="0.78" stop-color="#4370A8"/>
<stop offset="0.81" stop-color="#365697"/>
<stop offset="0.85" stop-color="#2D438A"/>
<stop offset="0.88" stop-color="#283883"/>
<stop offset="0.92" stop-color="#273581"/>
</linearGradient>
</defs>
</svg>
