<svg width="9" height="10" viewBox="0 0 9 10" fill="none" xmlns="http://www.w3.org/2000/svg">
<path d="M6.25622 0C6.28048 0 6.30475 0 6.33038 0C6.3899 0.705221 6.10925 1.23216 5.76817 1.61375C5.4335 1.99271 4.97522 2.36025 4.234 2.30448C4.18455 1.60936 4.46566 1.1215 4.80628 0.740789C5.12218 0.385983 5.70133 0.0702586 6.25622 0Z" fill="white"/>
<path d="M8.5 7.34027C8.5 7.3473 8.5 7.35344 8.5 7.36003C8.29169 7.96513 7.99456 8.48373 7.63196 8.965C7.30095 9.40192 6.89532 9.9899 6.17104 9.9899C5.54519 9.9899 5.12948 9.60392 4.48807 9.59338C3.80957 9.58284 3.43644 9.91613 2.81609 10C2.74513 10 2.67416 10 2.60457 10C2.14904 9.93677 1.7814 9.59074 1.51357 9.27897C0.723823 8.3577 0.113541 7.1677 0 5.64484C0 5.49554 0 5.34668 0 5.19738C0.0480717 4.1075 0.60021 3.22136 1.33411 2.7919C1.72143 2.56356 2.25388 2.36903 2.84676 2.45598C3.10086 2.49374 3.36044 2.57718 3.58798 2.65973C3.80362 2.73921 4.07328 2.88017 4.32875 2.8727C4.5018 2.86787 4.67395 2.78136 4.84838 2.72033C5.35931 2.54336 5.86017 2.34049 6.52036 2.43578C7.31377 2.55083 7.8769 2.88895 8.22485 3.41062C7.55367 3.82031 7.02305 4.43771 7.1137 5.49203C7.19428 6.44974 7.7748 7.01006 8.5 7.34027Z" fill="white"/>
</svg>
