<svg width="10" height="9" viewBox="0 0 10 9" fill="none" xmlns="http://www.w3.org/2000/svg">
<path d="M7.24181 7.08441H8.66795C8.7445 7.08441 8.77995 7.14251 8.77995 7.26829V8.00139C8.77995 8.12717 8.7445 8.18527 8.66795 8.18527H7.24181C7.165 8.18527 7.12903 8.12717 7.12903 8.00139V7.26829C7.12916 7.14251 7.16513 7.08441 7.24181 7.08441ZM4.28687 7.08441H5.713C5.78981 7.08441 5.82501 7.14251 5.82501 7.26829V8.00139C5.82501 8.12717 5.78981 8.18527 5.713 8.18527H4.28687C4.20955 8.18527 4.17486 8.12717 4.17486 8.00139V7.26829C4.17486 7.14251 4.20968 7.08441 4.28687 7.08441ZM1.33193 7.08441H2.75806C2.83487 7.08441 2.87007 7.14251 2.87007 7.26829V8.00139C2.87007 8.12717 2.83487 8.18527 2.75806 8.18527H1.33193C1.25461 8.18527 1.21941 8.12717 1.21941 8.00139V7.26829C1.21953 7.14251 1.25474 7.08441 1.33193 7.08441ZM5.92179 2.66749H8.35394C8.64593 2.66749 8.77995 2.79146 8.77995 3.06218V5.93782C8.77995 6.20854 8.64593 6.33239 8.35394 6.33239H5.92179C5.6298 6.33239 5.49578 6.20854 5.49578 5.93782V3.06218C5.49578 2.79158 5.6298 2.66749 5.92179 2.66749ZM1.64606 2.66749H4.0777C4.3702 2.66749 4.50422 2.79146 4.50422 3.06218V5.93782C4.50422 6.20854 4.3702 6.33239 4.0777 6.33239H1.64606C1.35356 6.33239 1.21953 6.20854 1.21953 5.93782V3.06218C1.21953 2.79158 1.35343 2.66749 1.64606 2.66749ZM7.24181 0.814609H8.66795C8.7445 0.814609 8.77995 0.872224 8.77995 0.998733V1.73159C8.77995 1.85749 8.7445 1.91499 8.66795 1.91499H7.24181C7.165 1.91499 7.12903 1.85749 7.12903 1.73159V0.998733C7.12916 0.872224 7.16513 0.814609 7.24181 0.814609ZM4.28687 0.814609H5.713C5.78981 0.814609 5.82501 0.872224 5.82501 0.998733V1.73159C5.82501 1.85749 5.78981 1.91499 5.713 1.91499H4.28687C4.20955 1.91499 4.17486 1.85749 4.17486 1.73159V0.998733C4.17486 0.872224 4.20968 0.814609 4.28687 0.814609ZM1.33193 0.814609H2.75806C2.83487 0.814609 2.87007 0.872224 2.87007 0.998733V1.73159C2.87007 1.85749 2.83487 1.91499 2.75806 1.91499H1.33193C1.25461 1.91499 1.21941 1.85749 1.21941 1.73159V0.998733C1.21953 0.872224 1.25474 0.814609 1.33193 0.814609ZM1.07552 0C0.337942 0 0 0.304326 0 0.96756V8.03171C0 8.69579 0.33807 9 1.07552 9H8.92448C9.66206 9 10 8.69579 10 8.03171V0.96756C10 0.304326 9.66193 0 8.92448 0H1.07552Z" fill="white"/>
</svg>
