<svg width="10" height="10" viewBox="0 0 10 10" fill="none" xmlns="http://www.w3.org/2000/svg">
<path fill-rule="evenodd" clip-rule="evenodd" d="M5.00124 0C6.38029 0 7.6306 0.559545 8.53677 1.46571C9.44046 2.3694 10 3.61971 10 5.00124C10 6.38029 9.44046 7.6306 8.53677 8.53677C7.6306 9.44046 6.38029 10 5.00124 10C3.61971 10 2.3694 9.44046 1.46571 8.53677C0.559545 7.6306 0 6.38029 0 5.00124C0 3.61971 0.559545 2.3694 1.46571 1.46571C2.3694 0.559545 3.61971 0 5.00124 0ZM7.98465 2.01783C7.68755 1.71825 7.34588 1.46571 6.97202 1.26764C7.03144 1.35925 7.08839 1.45333 7.14286 1.55236C7.58604 2.35454 7.87571 3.42411 7.9277 4.61005H9.20277C9.11117 3.5999 8.66304 2.69374 7.98465 2.01783ZM7.98465 7.98465C8.66304 7.30626 9.11117 6.4001 9.20277 5.38995H7.9277C7.87571 6.57589 7.58604 7.64546 7.14286 8.44764C7.08839 8.54667 7.03144 8.64323 6.97202 8.73236C7.34588 8.53429 7.68755 8.28175 7.98465 7.98465ZM2.01783 7.98465C2.31493 8.28175 2.65412 8.53429 3.03045 8.73236C2.97103 8.64323 2.91409 8.54667 2.85962 8.44764C2.41644 7.64546 2.12676 6.57589 2.0723 5.38995H0.799703C0.89131 6.4001 1.33944 7.30626 2.01783 7.98465ZM2.01783 2.01783C1.33944 2.69374 0.89131 3.5999 0.799703 4.61005H2.0723C2.12676 3.42411 2.41644 2.35454 2.85962 1.55236C2.91409 1.45333 2.97103 1.35925 3.03045 1.26764C2.65412 1.46571 2.31493 1.71825 2.01783 2.01783ZM5.38995 0.854172V4.61005H7.14781C7.09582 3.56029 6.84328 2.62194 6.45952 1.9287C6.16242 1.38896 5.79351 1.00768 5.38995 0.854172ZM5.38995 5.38995V9.14583C5.79351 8.99232 6.16242 8.61104 6.45952 8.07378C6.84328 7.37806 7.09582 6.43971 7.14781 5.38995H5.38995ZM4.61005 9.14583V5.38995H2.85467C2.90418 6.43971 3.1592 7.37806 3.54296 8.07378C3.84006 8.61104 4.20896 8.99232 4.61005 9.14583ZM4.61005 4.61005V0.854172C4.20896 1.00768 3.84006 1.38896 3.54296 1.9287C3.1592 2.62194 2.90418 3.56029 2.85467 4.61005H4.61005Z" fill="white"/>
</svg>
