<svg width="10" height="10" viewBox="0 0 10 10" fill="none" xmlns="http://www.w3.org/2000/svg">
<path fill-rule="evenodd" clip-rule="evenodd" d="M9.29321 7.59744C9.29271 8.04701 9.11391 8.47803 8.79605 8.79596C8.47818 9.11389 8.0472 9.29277 7.59763 9.29337H2.40271C1.95311 9.29282 1.52192 9.11396 1.20401 8.79602C0.886112 8.47809 0.707294 8.04704 0.706787 7.59744V2.40271C0.707294 1.95311 0.886112 1.52191 1.20401 1.20398C1.52192 0.886042 1.95294 0.70718 2.40255 0.706627H7.59745C8.04702 0.707226 8.47818 0.886108 8.79605 1.20404C9.11391 1.52197 9.29271 1.95299 9.29321 2.40256V7.59744ZM2.40278 0C1.76574 0.000703228 1.15499 0.254078 0.704536 0.704536C0.254078 1.15499 0.000703228 1.76574 0 2.40278V7.59722C0.000703228 8.23426 0.254078 8.84501 0.704536 9.29546C1.15501 9.74594 1.76579 9.99932 2.40286 10H7.5973C8.23435 9.99932 8.84511 9.74594 9.29556 9.29546C9.74601 8.84498 9.99936 8.2342 10 7.59715V2.40285C9.99936 1.7658 9.74601 1.15502 9.29556 0.704542C8.84513 0.254082 8.2344 0.000703308 7.59738 0H2.40278Z" fill="white"/>
<path fill-rule="evenodd" clip-rule="evenodd" d="M4.99998 6.44404C4.68266 6.44401 4.37246 6.34988 4.10863 6.17356C3.8448 5.99723 3.63918 5.74664 3.51776 5.45345C3.39635 5.16027 3.3646 4.83767 3.42653 4.52644C3.48846 4.21521 3.64129 3.92934 3.86568 3.70497C4.09008 3.48059 4.37597 3.3278 4.68721 3.2659C4.99844 3.20401 5.32104 3.23579 5.61421 3.35724C5.90738 3.47868 6.15795 3.68433 6.33425 3.94818C6.51054 4.21203 6.60464 4.52224 6.60464 4.83957C6.60422 5.26497 6.43503 5.67295 6.13421 5.97374C5.83339 6.27453 5.42539 6.44367 4.99998 6.44404ZM4.99994 2.52846C4.54288 2.5285 4.09609 2.66407 3.71607 2.91803C3.33603 3.17199 3.03983 3.53295 2.86493 3.95525C2.69003 4.37755 2.64429 4.84223 2.73348 5.29053C2.82267 5.73883 3.0428 6.15062 3.36601 6.47382C3.68923 6.79702 4.10103 7.01711 4.54934 7.10628C4.99765 7.19544 5.46233 7.14966 5.88462 6.97473C6.30691 6.79981 6.66784 6.50359 6.92178 6.12353C7.1757 5.74352 7.31123 5.29675 7.31126 4.83971C7.31058 4.22692 7.06683 3.63941 6.63351 3.20611C6.2002 2.77283 5.61271 2.52912 4.99994 2.52846Z" fill="white"/>
<path fill-rule="evenodd" clip-rule="evenodd" d="M7.54528 1.77572C7.44268 1.77569 7.34238 1.80609 7.25705 1.86307C7.17173 1.92006 7.10523 2.00106 7.06595 2.09584C7.02667 2.19063 7.01638 2.29493 7.03638 2.39556C7.05638 2.49619 7.10577 2.58863 7.17831 2.66118C7.25085 2.73374 7.34328 2.78316 7.4439 2.80318C7.54453 2.82321 7.64883 2.81294 7.74363 2.77369C7.83842 2.73443 7.91944 2.66794 7.97644 2.58264C8.03344 2.49733 8.06387 2.39704 8.06387 2.29444C8.06387 2.15689 8.00924 2.02497 7.91199 1.92769C7.81473 1.83042 7.68283 1.77575 7.54528 1.77572Z" fill="white"/>
</svg>
