<svg width="10" height="13" viewBox="0 0 10 13" fill="none" xmlns="http://www.w3.org/2000/svg">
<path d="M3.26087 7.36667V8.593C3.26052 8.73042 3.30016 8.865 3.37498 8.98043C3.44981 9.09586 3.5566 9.18719 3.68244 9.24336C3.80828 9.29954 3.94776 9.31814 4.08399 9.29693C4.22022 9.27572 4.34735 9.21559 4.45 9.12383L6.65217 7.15C6.74547 7.06707 6.82013 6.96543 6.87124 6.85173C6.92236 6.73803 6.94879 6.61484 6.94879 6.49025C6.94879 6.36566 6.92236 6.24247 6.87124 6.12877C6.82013 6.01507 6.74547 5.91343 6.65217 5.8305L4.45 3.87833C4.34749 3.7867 4.22056 3.72661 4.08452 3.70532C3.94849 3.68403 3.80919 3.70246 3.68344 3.75836C3.55768 3.81427 3.45086 3.90527 3.37587 4.02038C3.30089 4.13548 3.26094 4.26976 3.26087 4.407V5.63333H0V1.73333C0 1.27362 0.183229 0.832745 0.509379 0.507681C0.83553 0.182618 1.27788 0 1.73913 0H8.26087C8.72212 0 9.16447 0.182618 9.49062 0.507681C9.81677 0.832745 10 1.27362 10 1.73333V11.2667C10 11.7264 9.81677 12.1673 9.49062 12.4923C9.16447 12.8174 8.72212 13 8.26087 13H1.73913C1.27788 13 0.83553 12.8174 0.509379 12.4923C0.183229 12.1673 0 11.7264 0 11.2667V7.36667H3.26087Z" fill="white"/>
</svg>
